<?xml version="1.0" encoding="UTF-8"?>
<svg id="Ebene_1" xmlns="http://www.w3.org/2000/svg" version="1.1" viewBox="0 0 1080 1080">
  <!-- Generator: Adobe Illustrator 30.2.1, SVG Export Plug-In . SVG Version: 2.1.1 Build 1)  -->
  <defs>
    <style>
      .st0 {
        fill: #93c;
      }
    </style>
  </defs>
  <circle class="st0" cx="540" cy="540" r="540"/>
  <path d="M540,0c-.07,0-.13,0-.2,0-.02,0-.04,0-.06,0-.04,0-.1,0-.14,0-.03,0-.05,0-.08,0-.04,0-.09,0-.13,0-.02,0-.04,0-.07,0-.05,0-.11,0-.17,0-.01,0-.02,0-.04,0-.07,0-.13,0-.21,0-.01,0-.02,0-.03,0-.07,0-.09,0-.17,0-.02,0-.04,0-.07,0-.04,0-.1,0-.14,0-.02,0-.05,0-.07,0-.04,0-.11,0-.14,0-.02,0-.04,0-.06,0-.07,0-.13,0-.2,0-.01,0-.03,0-.04,0-.05,0-.11,0-.16,0-.02,0-.04,0-.06,0-.05,0-.1,0-.15,0-.02,0-.03,0-.05,0-.05,0-.11,0-.17,0-.01,0-.03,0-.04,0-.15,0-.27,0-.41,0-.02,0-.03,0-.05,0-.05,0-.11,0-.16,0-.02,0-.04,0-.05,0-.04,0-.11,0-.15,0-.02,0-.04,0-.06,0-.15,0-.27,0-.41,0,0,0-.01,0-.02,0-.07,0-.12,0-.19,0-.01,0-.02,0-.03,0-.07,0-.1,0-.18,0-.01,0-.03,0-.04,0-.22,0-.41,0-.63,0-.01,0-.02,0-.03,0-.05,0-.12,0-.17,0-.02,0-.03,0-.05,0-.07,0-.12,0-.19,0,0,0,0,0,0,0-.22,0-.42,0-.64,0-.01,0-.02,0-.03,0-.07,0-.12,0-.2,0,0,0,0,0,0,0-.22,0-.42,0-.64,0,0,0-.01,0-.02,0-.07,0-.13,0-.2,0,0,0,0,0,0,0-.22,0-.43,0-.65,0,0,0,0,0,0,0-12.48.18-24.84.78-37.1,1.79l3.29,39.86c13.76-1.13,27.79-1.71,41.67-1.71V0h0ZM450.4,7.4c-2.97.5-5.92,1.01-8.87,1.56-.01,0-.03,0-.04,0-.14.03-.24.04-.38.07,0,0-.01,0-.02,0-.07.01-.12.02-.18.03-.03,0-.05,0-.08.01-.1.02-.19.04-.3.05-.04,0-.07.01-.11.02-.07.01-.13.02-.2.04-.06.01-.12.02-.18.03-.05,0-.1.02-.16.03-.05,0-.11.02-.16.03-.07.01-.13.02-.2.04-.06.01-.11.02-.17.03-.05,0-.08.01-.13.02-.08.02-.16.03-.25.05-.03,0-.08.02-.12.02-.09.02-.18.03-.26.05-.03,0-.04,0-.08.01-.08.02-.16.03-.24.05-.03,0-.04,0-.07.01-.1.02-.19.04-.29.05-.03,0-.04,0-.07.01-.1.02-.2.04-.3.06-.02,0-.01,0-.03,0-.1.02-.2.04-.3.06h-.04c-.11.03-.21.05-.31.07h-.04c-.11.03-.21.05-.32.07h-.01c-.23.05-.45.09-.68.13h-.01c-9.91,1.94-19.72,4.15-29.43,6.62l9.87,38.76c13.39-3.41,27.1-6.29,40.74-8.57l-6.59-39.45h0ZM363.28,29.58c-2.11.73-4.22,1.47-6.31,2.23h-.01c-.22.08-.43.16-.65.24h0c-.1.04-.2.08-.31.11-.02,0-.03.01-.04.02-.1.04-.2.07-.3.11-.02,0-.03,0-.04.02-.09.03-.19.07-.29.1-.02,0,0,0-.02,0-.1.04-.19.07-.29.11-.02,0-.04.02-.06.02-.09.03-.19.07-.28.1-.02,0-.05.02-.07.02-.09.03-.19.07-.28.1-.02,0-.02,0-.04.01-.08.03-.17.06-.25.09-.03.01-.05.02-.08.03-.09.03-.17.06-.26.09-.03.01-.06.02-.09.03-.08.03-.17.06-.25.09-.03.01-.07.02-.1.04-.06.02-.13.05-.19.07-.05.02-.08.03-.13.05-.07.03-.14.05-.2.08-.05.02-.08.03-.13.05-.07.03-.15.06-.23.08-.05.02-.08.03-.12.05-.06.02-.11.04-.17.06-.06.02-.12.04-.18.07-.05.02-.1.04-.15.05-.05.02-.1.04-.15.05-.07.02-.13.05-.2.07-.05.02-.1.04-.15.06-.04.02-.09.03-.13.05-.08.03-.15.06-.23.09-.04.01-.07.03-.1.04-.1.04-.17.06-.27.1-.03.01-.06.02-.08.03-.06.02-.11.04-.17.06,0,0-.02,0-.03.01-.13.05-.21.08-.34.13-.02,0-.04.02-.07.02-.1.04-.21.08-.31.12-.02,0-.03.01-.05.02-.19.07-.37.14-.56.21,0,0-.01,0-.02,0-.13.05-.23.09-.36.14,0,0-.02,0-.02,0-9.16,3.47-18.18,7.18-27.09,11.13l16.21,36.57c12.64-5.6,25.68-10.74,38.73-15.26l-13.08-37.8h0ZM281.1,66c-7.67,4.2-15.24,8.58-22.67,13.13h0c-.29.18-.57.35-.86.53,0,0-.02.01-.02.01-.1.06-.2.12-.3.18-.02.01-.04.02-.06.04-.09.05-.21.13-.3.18,0,0-.02.01-.03.02-.17.11-.32.2-.49.3-.02.01-.04.02-.06.04-.09.05-.17.11-.26.16-.03.02-.06.03-.08.05-.06.04-.12.08-.18.11-.05.03-.09.06-.14.09-.06.04-.08.05-.14.09-.04.03-.08.05-.12.08-.07.04-.11.07-.19.12-.04.03-.08.05-.13.08-.06.04-.11.07-.17.11-.05.03-.1.06-.15.09-.04.03-.07.04-.11.07-.07.04-.14.09-.21.13-.04.03-.06.04-.11.07-.06.04-.12.08-.18.12-.04.03-.07.04-.11.07-.06.04-.12.07-.18.11-.03.02-.06.03-.08.05-.08.05-.15.1-.23.14-.03.02-.06.04-.09.05-.08.05-.15.1-.23.14-.03.02-.05.03-.08.05-.08.05-.15.09-.23.14-.01,0-.03.02-.05.03-.08.05-.16.1-.24.15-.01,0-.05.03-.06.04-.08.05-.16.1-.25.16-.03.02-.03.02-.06.04-.09.05-.17.11-.25.16-.01,0-.02.01-.04.02-.09.06-.18.11-.27.17h0c-.09.06-.19.12-.28.18-.01,0-.02.01-.03.02-.09.06-.19.12-.28.18-.01,0,0,0-.01,0-2.86,1.82-5.71,3.66-8.54,5.53l22.06,33.37c11.55-7.63,23.55-14.87,35.67-21.51l-19.21-35.09h0ZM206.11,115.57c-4.91,3.87-9.78,7.84-14.55,11.88-.01.01-.03.03-.04.04-.09.08-.18.15-.27.23,0,0-.02.01-.02.02-.15.13-.3.25-.45.38,0,0-.01.01-.02.02-.09.08-.18.15-.27.23-.02.01-.03.03-.05.04-.08.07-.17.14-.24.21-.02.01-.03.03-.05.04-.05.04-.09.08-.14.12,0,0,0,0-.01.01-.09.08-.18.16-.27.23-.02.02-.05.04-.07.06-.08.07-.14.12-.22.19-.03.02-.05.04-.08.06-.06.05-.13.11-.2.17-.03.03-.06.05-.1.08-.05.04-.08.06-.13.11-.03.02-.06.05-.08.07-.06.05-.14.12-.2.18-.03.02-.05.05-.08.07-.06.05-.13.11-.19.16-.03.03-.06.06-.1.08-.04.03-.1.08-.13.12-.05.04-.1.09-.16.13-.04.03-.07.06-.11.09-.05.04-.09.08-.14.12-.05.04-.09.08-.15.13-.04.03-.08.07-.12.1-.04.03-.1.09-.14.12-.05.04-.09.08-.14.12-.04.03-.06.06-.1.09-.06.05-.12.1-.18.15-.04.03-.06.05-.1.09-.05.05-.11.1-.16.14-.04.03-.07.06-.11.1-.05.04-.09.08-.14.12-.04.03-.07.06-.11.1-.05.05-.11.09-.16.14-.04.03-.06.05-.1.08-.06.05-.12.11-.19.16-.04.03-.05.05-.09.08-.05.05-.11.09-.16.14-.04.03-.07.06-.11.1-.05.04-.1.09-.15.13-.03.02-.05.05-.08.07-.06.06-.13.11-.19.17-.03.02-.06.06-.09.08-.06.06-.13.11-.19.17-.04.03-.05.04-.08.07-.05.05-.11.09-.16.14-.03.02-.08.07-.11.09-.05.05-.11.1-.16.14-.03.02-.05.04-.07.06-.07.06-.13.12-.2.18-.03.02-.05.05-.08.07-.07.06-.13.12-.2.18-.03.02-.04.04-.07.06-.06.05-.12.1-.18.16-.03.02-.05.05-.08.07-.06.05-.12.11-.18.16-.03.02-.05.04-.07.06-.07.06-.14.12-.2.18-.03.02-.04.04-.07.06-.07.06-.14.12-.21.18-.03.02-.03.03-.06.05-.06.05-.12.11-.18.16-.01.01-.05.04-.06.05-.07.06-.14.12-.2.18-.01.01-.05.05-.07.06-.07.06-.14.12-.21.18-.01.01-.05.04-.06.05-.07.06-.14.13-.21.19-.01.01-.04.03-.05.04-.06.06-.13.11-.19.17-.03.02-.03.03-.06.05-.07.06-.14.13-.21.19-.03.02-.04.03-.06.06-.07.06-.14.12-.21.19-.01.01-.05.04-.06.06-.07.06-.14.13-.22.19-.01.01-.02.02-.04.03-.06.06-.13.11-.19.17-.03.02-.04.04-.06.06-.07.06-.14.12-.21.18-.03.02-.04.04-.07.06-.07.06-.14.12-.21.19-.03.02-.04.03-.06.05-.07.06-.14.12-.2.18-.03.02-.01.01-.04.04-.07.06-.14.12-.21.18-.03.02-.03.03-.06.05-.07.06-.14.13-.21.19-.03.02-.04.04-.06.06-.07.06-.14.13-.21.19-.03.02-.03.03-.06.05-.06.06-.13.11-.19.17-.01.01-.03.03-.05.04-.07.06-.14.13-.21.19-.01.01-.05.04-.06.05-.07.06-.14.13-.21.19-.03.02-.03.03-.06.05-.07.06-.14.13-.21.19-.01.01-.03.03-.05.04-.07.06-.13.12-.2.18-.01.01-.03.02-.04.04-.07.06-.14.13-.21.19-.01.01-.05.04-.06.06-.07.06-.14.13-.21.19-.01.01-.04.03-.05.04-.07.07-.15.13-.22.2-.01.01-.03.02-.04.03-.07.06-.13.12-.2.18-.02.02-.02.02-.04.04-.07.06-.14.13-.21.19-.02.02-.05.04-.07.06-.07.06-.13.12-.2.18-.01.01-.05.05-.06.06-.07.06-.13.12-.2.18-.02.02-.03.03-.06.05-.06.06-.12.11-.18.17-.02.02-.04.04-.06.06-.07.06-.13.12-.2.19-.02.02-.05.04-.07.06-.07.06-.14.12-.2.19-.02.02-.04.03-.06.06-.06.06-.12.11-.18.17-.02.02-.04.04-.07.06-.06.06-.12.11-.18.17-.02.02-.05.04-.07.07-.06.06-.13.12-.19.18-.02.02-.06.05-.08.08-.06.06-.13.12-.19.18-.02.02-.05.05-.07.07-.05.05-.1.09-.15.14-.04.03-.06.05-.1.09-.06.05-.11.11-.17.16-.04.03-.04.04-.08.07-.06.06-.12.12-.19.17-.02.02-.06.06-.09.08-.06.06-.12.11-.18.17-.02.02-.05.05-.08.07-.05.05-.1.09-.15.14-.02.02-.06.06-.08.08-.06.05-.12.11-.18.17-.02.02-.06.06-.09.08-.06.06-.12.11-.18.17-.01.01-.03.03-.04.04l27.27,29.26c10.13-9.44,20.77-18.56,31.64-27.12l-24.75-31.42h0ZM140.33,176.86c-1.7,1.87-3.38,3.74-5.05,5.63,0,0,0,0,0,0-.21.24-.44.5-.65.74-.02.02-.03.04-.05.06-.07.08-.12.14-.19.21-.03.03-.05.06-.08.09-.04.05-.09.1-.13.15-.04.05-.08.09-.12.14-.03.04-.06.07-.1.11-.05.06-.1.12-.15.17-.02.03-.06.07-.08.1-.04.05-.08.09-.12.14-.03.04-.06.07-.09.1-.05.06-.1.11-.15.17-.02.03-.05.05-.07.08-.06.07-.12.13-.17.2-.02.03-.05.05-.07.08-.06.07-.12.14-.18.2-.02.03-.03.03-.05.06-.06.07-.11.13-.17.2-.01.01-.02.03-.04.04-.07.08-.13.15-.2.23-.01.01-.03.04-.04.05-.07.08-.13.15-.2.23-.01.01-.02.02-.03.03-.22.26-.45.52-.67.77h0c-3.83,4.43-7.59,8.93-11.28,13.48h0c-.15.18-.29.36-.44.54h0c-.07.09-.14.18-.21.26l-.03.03c-.07.08-.13.16-.2.25-.01.01-.02.02-.03.04-.07.08-.13.16-.2.24h-.01c-.06.09-.12.17-.19.24-.02.03-.03.03-.05.06-.06.07-.12.14-.17.22-.02.03-.04.05-.06.08-.05.07-.11.13-.16.2-.02.03-.06.07-.08.1-.04.05-.08.09-.11.14-.04.05-.07.09-.11.14-.04.04-.07.09-.11.13-.03.04-.06.08-.1.12-.05.06-.09.11-.14.17-.03.04-.07.09-.1.13-.02.03-.05.06-.07.09-.05.07-.12.16-.18.22-.02.02-.03.04-.05.06-.06.08-.15.19-.21.26,0,.01-.02.02-.02.03-1.92,2.42-3.82,4.84-5.7,7.3l31.72,24.36c8.43-10.97,17.42-21.73,26.73-31.97l-29.6-26.91h0ZM85.58,248.16c-8.1,12.58-15.7,25.54-22.75,38.81l35.32,18.77c6.49-12.21,13.57-24.3,21.06-35.93l-33.64-21.65h0ZM43.4,327.54c-1.93,4.51-3.8,9.05-5.61,13.61,0,.02,0-.02,0,0-.04.11-.09.22-.13.33h0c-.09.22-.17.43-.26.65h0c-.04.11-.08.21-.12.31,0,.02,0,.02-.01.03-.04.1-.08.2-.12.3v.02c-.04.1-.08.19-.12.29,0,.02,0,.02-.02.04-.04.09-.07.19-.11.28,0,.02-.02.04-.02.06-.04.09-.07.19-.11.28,0,.02-.02.05-.02.06-.03.09-.07.17-.1.26,0,.02-.01.03-.02.04-.03.09-.07.17-.1.26,0,.02-.03.07-.03.08-.03.09-.07.17-.1.25-.01.03-.02.06-.04.09-.03.08-.06.16-.09.24-.01.03-.02.06-.03.09-.03.07-.05.13-.08.2-.01.03-.03.07-.04.1-.03.08-.06.15-.09.23-.01.03-.04.09-.05.13-.03.07-.05.13-.08.2-.02.06-.03.09-.06.15-.02.05-.04.1-.06.15-.02.06-.05.12-.07.19-.02.05-.04.11-.06.16-.02.05-.03.09-.05.14-.03.07-.05.14-.08.21-.02.05-.04.11-.06.15-.01.04-.03.07-.04.11-.04.1-.06.16-.1.25-.01.03-.02.06-.03.09-.04.11-.08.22-.13.34,0,0,0,.01,0,.02-.02.06-.04.11-.07.18,0,.02-.02.04-.02.07-.04.1-.08.21-.12.31,0,.02-.01.04-.02.06-.04.11-.09.23-.13.35,0,0,0,0,0,.01-.07.19-.14.38-.22.57,0,0,0,0,0,.01-2.5,6.64-4.88,13.34-7.13,20.1l37.96,12.61c4.36-13.11,9.33-26.21,14.77-38.92l-36.77-15.75h0ZM15.05,412.85s0,.04-.01.05c-.02.09-.04.17-.06.26,0,.03-.01.05-.02.08-.02.08-.04.15-.05.23,0,.03-.01.05-.02.08-.02.09-.04.18-.07.27,0,.03-.01.05-.02.09-.02.09-.04.18-.07.27,0,.03,0,.04-.02.08-.02.08-.04.16-.06.24,0,.03,0,.03-.02.06-.02.09-.05.19-.07.28,0,.03,0,.04-.02.07-.02.09-.05.19-.07.29,0,.03,0,.02-.01.06-.02.09-.04.17-.06.26,0,.02,0,.04-.01.06-.02.1-.05.19-.07.29,0,.03,0,.03-.02.07-.02.1-.05.19-.07.29,0,.02,0,.03-.01.05-.02.09-.04.19-.07.28,0,.02,0,.02,0,.03-.02.1-.05.2-.07.29,0,.03,0,.04-.02.07-.02.1-.05.2-.07.29v.04c-.03.1-.05.19-.08.29,0,.02,0,.02,0,.03-.02.1-.05.2-.07.3,0,.02,0,.04-.01.06-.02.1-.05.2-.07.29,0,.03,0,.03-.01.06-.02.09-.04.18-.06.27,0,.02,0,.03-.01.04-.02.1-.04.19-.07.29,0,.02-.01.05-.02.07-.02.1-.04.19-.07.29,0,.02,0,.04-.01.05-.02.09-.04.18-.06.28,0,.02,0,.02,0,.04-.02.1-.04.2-.07.29,0,.02-.01.05-.02.07-.02.09-.04.19-.06.28,0,.03,0,.04-.02.07-.02.09-.04.17-.06.26,0,.02,0,.03-.01.05-.02.1-.04.19-.06.28,0,.03-.01.05-.02.08-.02.09-.04.19-.06.28,0,.02-.01.05-.01.07-.02.09-.04.17-.06.26,0,.02,0,.03-.01.05-.02.09-.04.19-.06.28,0,.03-.01.05-.02.08-.02.09-.04.18-.06.27,0,.03-.01.06-.02.09-.02.08-.03.15-.05.23,0,.02-.01.06-.02.08-.02.09-.04.17-.06.26,0,.03-.01.07-.02.1-.02.09-.04.17-.06.26,0,.03-.02.07-.02.11-.01.07-.03.14-.04.2-.01.05-.02.08-.03.13-.02.07-.03.15-.05.22,0,.03-.02.08-.03.11-.02.08-.04.17-.05.25,0,.03-.02.08-.02.11-.01.07-.03.14-.04.21-.01.05-.02.08-.03.13-.02.07-.03.14-.05.21-.01.05-.02.07-.03.12-.02.08-.04.16-.05.25-.01.05-.01.07-.03.12-.01.06-.03.12-.04.18-.01.07-.02.1-.04.17-.01.06-.03.12-.04.18-.01.05-.02.08-.03.13-.02.08-.03.16-.05.23-.01.05-.02.09-.03.14-.01.05-.02.1-.03.16-.01.07-.03.13-.04.2-.01.05-.02.1-.03.16-.01.05-.02.1-.03.15-.02.07-.03.15-.05.22-.01.05-.02.11-.03.16,0,.04-.02.08-.03.12-.01.07-.04.18-.05.25,0,.04-.02.08-.02.12-.01.05-.02.12-.04.17,0,.04-.02.09-.03.13-.02.09-.03.17-.05.25,0,.03-.01.07-.02.1-.02.1-.04.19-.06.3,0,.02-.01.05-.02.07-.04.21-.08.37-.12.58,0,.02,0,.04-.01.06-.02.1-.05.24-.07.34,0,.02,0,.03-.01.05-.04.21-.08.38-.12.59,0,.02,0,.03,0,.05-.02.1-.05.24-.07.35,0,.02,0,.03,0,.05-1.75,8.53-3.29,17.13-4.63,25.8l39.53,6.1c2.11-13.68,4.82-27.42,8.06-40.85l-38.88-9.38h0ZM1.34,501.7c-.06.89-.12,1.78-.18,2.67h0c-.01.2-.03.39-.04.58,0,.02,0,0,0,.03,0,.08-.01.16-.02.25,0,.02,0,.03,0,.05,0,.09-.01.18-.02.27,0,.02,0,.03,0,.05,0,.07,0,.14-.01.21,0,.04,0,.07,0,.1,0,.06,0,.11-.01.17,0,.04,0,.06,0,.1,0,.08,0,.15-.01.23,0,.05,0,.08,0,.14,0,.04,0,.08,0,.11,0,.05,0,.09,0,.15,0,.03,0,.06,0,.1,0,.11-.01.2-.02.31,0,.02,0,.03,0,.05,0,.07,0,.11-.01.18,0,.02,0,.03,0,.05-.01.2-.02.42-.04.61,0,0,0,0,0,0-.41,7.03-.68,14.1-.82,21.2,0,0,0,0,0,0,0,.29-.01.57-.02.86,0,0,0,.02,0,.03,0,.22,0,.39-.01.61,0,.01,0,.03,0,.04,0,.07,0,.12,0,.19,0,.01,0,.02,0,.04,0,.18,0,.41,0,.59,0,.02,0,.04,0,.07,0,.05,0,.13,0,.18,0,0,0,.02,0,.02,0,.13,0,.23,0,.36,0,.03,0,.05,0,.08,0,.05,0,.11,0,.16,0,.03,0,.06,0,.09,0,.09,0,.2,0,.29,0,.03,0,.06,0,.09,0,.05,0,.09,0,.15,0,.04,0,.07,0,.11,0,.05,0,.09,0,.15,0,.04,0,.08,0,.12,0,.07,0,.16,0,.23,0,.04,0,.09,0,.13,0,.05,0,.09,0,.14,0,.04,0,.08,0,.12,0,.05,0,.08,0,.13,0,.07,0,.15,0,.22,0,.04,0,.09,0,.13,0,.05,0,.1,0,.15,0,.04,0,.09,0,.12,0,.05,0,.1,0,.15,0,.04,0,.1,0,.14,0,.07,0,.14,0,.21,0,.04,0,.08,0,.12,0,.05,0,.1,0,.15,0,.04,0,.08,0,.12,0,.07,0,.14,0,.21,0,.04,0,.08,0,.11,0,.06,0,.12,0,.19,0,.04,0,.07,0,.11,0,.06,0,.12,0,.18,0,.04,0,.06,0,.09,0,.08,0,.17,0,.25,0,.04,0,.06,0,.09,0,.06,0,.12,0,.18,0,.04,0,.07,0,.1,0,.07,0,.13,0,.2,0,.02,0,.06,0,.08,0,.08,0,.17,0,.25,0,.02,0,.07,0,.09,0,.06,0,.13,0,.19,0,.02,0,.07,0,.08,0,.09,0,.17,0,.26,0,.02,0,.04,0,.05,0,.07,0,.14,0,.21,0,.04,0,.06,0,.09,0,.07,0,.13,0,.2,0,.02,0,.05,0,.06,0,.09,0,.17,0,.26,0,.02,0,.06,0,.08,0,.07,0,.14,0,.2,0,.02,0,.06,0,.08,0,.09,0,.18,0,.27h0c0,.07,0,.14,0,.22,0,.01,0,.02,0,.04,0,.05,0,.12,0,.18,0,.02,0,.04,0,.06,0,.05,0,.11,0,.17,0,0,0,.02,0,.02,0,.07,0,.12,0,.2,0,0,0,0,0,0,0,1.95.02,3.86.04,5.8l40-.49c-.02-2.05-.04-4.14-.04-6.2,0-11.82.42-23.77,1.24-35.51l-39.9-2.8h0ZM42.25,587.82l-39.82,3.78c.24,2.58.51,5.16.79,7.73,0,.02,0,.02,0,.03.01.11.02.22.04.33h0c.01.11.02.22.04.32,0,.02,0,.03,0,.04.01.1.02.21.03.31,0,.02,0,.04,0,.05.01.11.02.21.04.32,0,.02,0,0,0,.02.01.1.02.2.03.29,0,.02,0,.05,0,.06.01.1.02.2.03.29,0,.02,0,.06,0,.08.01.1.02.19.03.29,0,.02,0,.02,0,.04.01.09.02.18.03.28,0,.02,0,.07,0,.09.01.09.02.19.03.28,0,.02,0,.08.01.09,0,.08.02.16.03.24,0,.04,0,.07.01.11,0,.08.02.16.03.23,0,.04,0,.07.01.11.01.09.02.18.03.27,0,.04,0,.07.01.1,0,.08.02.15.03.23,0,.04,0,.07.01.11,0,.08.02.16.03.24,0,.04,0,.08.01.12.01.09.02.17.03.26,0,.04,0,.07.01.11,0,.07.02.14.02.21,0,.04.01.08.01.12,0,.08.02.16.03.24,0,.04,0,.08.01.12.01.09.02.17.03.26,0,.04,0,.08.01.11,0,.07.02.13.02.2,0,.04,0,.08.01.11.01.08.02.17.03.25,0,.04,0,.08.01.12.01.09.02.17.03.26,0,.04,0,.07.01.11,0,.07.02.14.03.21,0,.04,0,.07.01.1.01.09.02.18.03.26,0,.04,0,.08.01.11.01.09.02.17.03.26,0,.04,0,.07.01.1,0,.07.02.14.03.21,0,.04,0,.07.01.1.01.09.02.17.03.26,0,.04.01.08.01.12.01.09.02.18.03.27,0,.02,0,.05,0,.07.01.08.02.16.03.24,0,.04,0,.05.01.09.01.09.02.18.04.28,0,.04,0,.06.01.1.01.09.02.17.03.26,0,.02.01.08.01.1,0,.08.02.16.03.23,0,.02,0,.07.01.09.01.09.02.19.04.28,0,.02,0,.07.01.09.01.09.02.18.04.27,0,.02,0,.05,0,.06.01.09.02.17.03.26,0,.02,0,.07.01.08.01.1.03.19.04.28,0,.02,0,.06.01.08.01.1.03.19.04.29v.03c.02.1.03.2.04.3,0,.02,0,.04,0,.06.01.1.03.2.04.3,0,.02,0,.04,0,.06.03.21.06.42.09.63,0,.02,0,.03,0,.05.01.11.03.21.04.32v.03c.02.11.03.22.05.33h0c.02.11.03.22.05.33,0,.02,0,.01,0,.03,1.01,7.31,2.16,14.57,3.46,21.78l39.37-7.08c-2.44-13.59-4.35-27.48-5.65-41.27h0ZM56.98,669.73l-38.64,10.35c1.32,4.93,2.72,9.86,4.17,14.73,0,0,0,.02,0,.02.04.13.07.23.11.36,0,.01,0,.02.01.03.06.2.11.37.17.57,0,.02.01.04.02.06.03.1.06.21.09.31,0,.02.01.05.02.07.03.1.06.21.09.31,0,.02.01.04.02.07.02.07.03.1.05.17.01.04.02.07.03.11.03.08.05.16.07.24.01.05.03.09.04.14.02.05.03.09.04.14.02.07.05.15.07.22.01.03.03.1.04.14.02.07.05.15.07.22.01.03.03.09.04.13.02.06.04.12.05.18.02.05.03.09.04.14.02.07.05.15.07.22.01.03.02.07.03.1.03.08.05.17.08.26.01.03.02.06.03.09.02.08.05.16.07.24,0,.02.01.05.02.06.03.09.06.18.08.27,0,.02.02.05.02.07.03.1.06.19.09.29,0,.02.01.03.02.05.03.1.06.2.09.31h0c.03.11.07.21.1.32v.03c.04.1.07.21.11.31,0,.02,0,.02.01.03.07.22.14.43.2.65h0c.03.11.07.22.1.33h0c2.21,7.05,4.57,14.03,7.06,20.94l37.63-13.55c-4.68-13.01-8.87-26.37-12.45-39.72h0ZM85.17,748l-36.37,16.66c.98,2.14,1.97,4.26,2.98,6.39,0,.02,0,0,0,0,.1.21.2.41.3.62h0c.05.11.09.21.14.3,0,.02.02.04.02.05.04.09.09.18.13.27,0,.02.02.05.03.06.04.09.08.18.13.26v.02c.05.09.1.18.14.27,0,.02.03.06.03.07.04.08.08.17.12.25.01.03.03.05.04.08.04.08.08.16.12.25.01.03.03.06.04.09.03.06.06.13.09.19.01.03.03.06.04.09.04.08.08.16.11.24.01.03.03.07.05.1.04.08.07.15.11.23.02.05.03.06.05.11.03.05.05.11.08.16.03.06.06.12.09.18.02.05.04.09.07.14.02.05.04.08.06.13.03.07.07.14.1.21.02.05.04.09.07.13.03.05.05.11.08.16.03.06.06.12.09.18.02.04.04.08.06.12.04.08.07.14.11.22.02.04.04.08.06.12.02.05.05.1.07.14.03.07.06.13.09.19.02.05.05.1.07.15.02.04.04.08.06.12.04.08.07.15.11.22.02.03.03.07.05.1.04.08.08.16.12.24.02.03.03.07.05.1.03.06.04.09.07.15.02.04.04.08.06.12.04.08.07.15.11.22.02.03.03.07.05.1.04.08.08.15.11.23.02.04.04.07.05.11.02.05.05.1.07.15.03.06.06.13.09.19.02.05.05.1.07.15.02.04.04.07.06.11.04.08.08.15.11.23.02.03.03.07.05.1.04.08.07.14.11.22.02.04.04.08.06.12.03.06.04.08.07.14.03.06.06.11.09.17.03.06.05.1.08.16.02.04.04.08.06.13.03.06.07.14.1.2.02.05.04.09.07.13.02.05.04.09.07.13.03.07.07.13.1.2.02.05.04.09.07.13.03.05.05.11.08.16.02.05.06.12.08.16.02.05.05.09.07.14.02.05.06.11.08.16.03.06.06.12.09.18.02.03.04.09.06.12.04.07.07.14.11.21.02.05.04.08.06.12.03.06.06.11.09.17.02.03.05.1.07.13.03.06.06.13.09.19.02.03.03.07.05.1.04.08.08.16.12.23.02.03.03.06.05.09.04.08.08.16.12.24.02.03.03.05.04.08.04.07.07.14.11.21,0,.02.03.05.03.06.04.08.09.17.13.25.02.03.02.05.04.08.04.08.08.17.13.25,0,.02.03.06.04.07.04.08.09.17.13.25,0,.02.02.03.02.05.04.08.09.17.13.25,0,.02.02.03.02.04.05.09.09.18.14.28,0,.02.02.03.02.05.05.1.1.19.15.29h0c.1.21.21.42.31.62,0,.02,0,0,0,.01.05.1.1.2.15.3,0,.02,0,0,0,.02,3.11,6.04,6.33,12.01,9.65,17.91l34.85-19.64c-6.79-12.06-13.16-24.54-18.91-37.1h0ZM126.03,820.5l-33.09,22.47c8.44,12.43,17.38,24.48,26.8,36.14l31.11-25.14c-8.7-10.77-17.05-22.03-24.82-33.47h0ZM178.36,885.28l-28.93,27.63s.01.01.01.01c.15.16.31.32.46.48l.02.02c.07.08.15.16.22.23l.03.03c.07.08.15.15.22.23l.02.03c.15.16.3.32.46.47.01.01.01.02.03.03.07.08.15.15.22.23.01.01.02.02.03.03.07.08.15.15.22.23l.02.02c.07.08.15.15.22.23.01.01,0,0,0,0,.07.08.15.15.22.23.01.01.02.02.04.04.07.07.14.15.21.22.01.01.02.03.04.04.07.07.15.15.22.22.01.01.01.01.02.02.07.07.14.15.21.22.01.01.01.01.02.02.07.07.14.15.22.22.01.01.03.03.04.04.07.07.14.15.21.22.01.01.02.02.03.04.07.08.15.15.22.23.01.01,0,0,.02.02.07.08.15.15.22.23l.02.02c.07.08.15.15.22.23.01.01.02.02.04.04.07.07.15.15.22.22.01.01.02.02.03.03.15.16.31.31.46.47l.02.02c.07.08.15.15.22.23l.03.03c.08.08.15.15.22.23l.02.02c.08.08.16.16.23.24h0c.08.08.15.16.23.24.01.01.01.01.02.02.08.08.15.15.23.23.01.01,0,0,.02.02.08.08.16.16.23.24h0c.08.09.16.17.24.25h0c.08.08.16.16.24.24.01.01,0,0,.02.02.08.08.15.16.23.23.01.01,0,0,.02.02.16.16.32.32.48.48h0c.08.08.16.16.24.25h0c.08.09.16.17.24.25h.01c.25.26.49.5.74.75h0c.33.33.66.66.99.99h0c5.4,5.37,10.92,10.62,16.55,15.76h0c.26.24.51.47.77.7h.01c.08.09.16.16.24.24t.02.02c.08.07.16.15.24.22h0c.08.07.15.14.23.21.03.02.02.02.04.04.07.07.14.13.22.2.03.02.03.03.06.05.07.06.14.13.21.19.03.02.03.03.06.05.06.06.13.11.19.17.03.02.04.04.07.06.06.05.12.11.18.16.03.02.05.05.08.07.06.06.13.11.19.17.03.02.06.06.09.08.06.06.12.11.18.17.03.02.07.06.09.08.04.04.09.08.14.12.05.05.09.08.14.13.04.03.08.07.11.1.04.03.09.08.13.11.05.05.1.09.15.14.05.05.08.07.13.11.02.02.05.04.07.07.08.07.14.13.22.19.02.02.04.03.06.05.09.08.17.15.26.23,0,0,.01.01.02.02.38.34.76.68,1.14,1.01l26.54-29.92c-10.35-9.18-20.45-18.91-30.01-28.92h0ZM240.66,940.53l-23.97,32.02s.03.02.04.03c.07.05.13.1.2.15.04.03.06.05.1.08.05.04.1.07.15.11.04.03.12.09.16.12.04.03.08.06.11.08.07.05.11.08.18.13.04.03.08.06.11.08.05.04.08.06.14.1.03.02.06.05.1.07.07.05.14.1.21.15.03.02.05.04.08.06.08.06.15.11.23.17.02.02.04.03.06.05.1.07.2.15.3.22,0,0,0,0,0,0,.16.12.31.23.47.35.01,0,.02.02.04.03.1.07.2.15.3.22,0,0,0,0,.01,0,.27.2.54.4.81.6,0,0,0,0,0,0,3.49,2.56,7,5.08,10.55,7.57h0c.11.08.22.15.33.23,0,0,0,0,0,0,.17.12.33.23.5.35h0c.11.08.21.15.32.22,0,0,.02.01.02.02.28.19.53.37.81.56.01,0,.03.02.04.03.08.06.19.13.28.19.02.01.03.02.05.03.17.12.31.22.48.33,0,0,0,0,.01,0,.1.07.2.14.3.21.02.01.03.02.05.04.08.06.19.13.28.19.01,0,.03.02.04.03.17.11.31.21.48.33.02.01.04.03.06.04.08.06.17.11.25.17.03.02.06.04.08.06.08.06.15.1.23.16.03.02.05.04.08.05.06.04.09.06.15.1.03.02.06.04.1.07.07.05.15.1.22.15.03.02.06.04.09.06.07.05.15.1.22.15.03.02.06.04.1.07.07.05.12.08.19.13.04.03.08.05.12.08.06.04.08.05.14.09.04.03.08.05.11.08.07.05.13.09.2.13.04.03.07.05.11.08.06.04.13.09.19.13.04.03.08.06.12.08.04.03.08.05.12.08.07.04.13.09.19.13.03.02.09.06.12.08.05.03.1.07.15.1.06.04.11.07.16.11.04.03.08.05.12.08.06.04.13.08.18.12.04.03.08.05.12.08.04.03.09.06.13.09.06.04.12.08.18.12.04.03.09.06.13.09.04.03.08.05.12.08.07.05.13.09.2.13.03.02.07.05.1.07.06.04.13.08.18.12.04.03.09.06.14.09.04.03.08.06.13.08.06.04.12.08.19.13.04.03.08.05.12.08.04.03.09.06.13.09.06.04.12.08.18.12.04.03.08.06.13.08.04.03.09.06.13.09.06.04.12.08.18.12.04.03.08.06.13.08.05.03.1.07.15.1.06.04.11.07.17.11.04.02.07.05.11.07.07.05.13.08.2.13.04.03.08.05.12.08.04.03.09.06.13.09.06.04.12.08.18.12.04.03.09.06.14.09.04.03.08.05.12.08.07.05.12.08.19.12.04.02.07.05.11.07.07.05.13.09.2.13.04.02.08.05.11.07.04.03.09.06.13.09.06.04.12.08.18.12.04.03.1.06.14.09.03.02.06.04.1.06.07.05.15.1.22.15.03.02.06.04.09.06.07.05.16.11.24.15.03.02.05.04.08.05.06.04.09.06.15.1.03.02.06.04.09.06.07.05.16.1.23.15.03.02.05.04.08.05.09.06.16.1.24.16.03.02.05.03.07.05.09.06.2.13.29.19,0,0,.02.01.03.02.06.04.1.06.16.1.02.01.04.03.06.04.09.06.17.11.26.17.02.01.05.03.07.04.09.06.19.12.28.18.01,0,.02.02.04.02.17.11.33.21.5.32,0,0,0,0,0,0,.11.07.21.13.32.21,0,0,.02.01.03.02,2.12,1.37,4.23,2.71,6.37,4.05l21.23-33.9c-11.72-7.34-23.28-15.27-34.36-23.56h0ZM311.21,984.71l-18.33,35.55c.06.03.12.06.18.09,0,0,.02,0,.03.01.18.09.34.18.52.27.02,0,.03.02.05.03.09.05.19.1.29.15.03.01.05.03.07.04.09.05.18.09.27.14.02.01.05.02.07.04.06.03.1.05.16.08.03.01.05.03.07.04.09.05.17.09.27.14.03.01.06.03.08.04.09.05.18.09.27.14.02.01.04.02.07.03.11.05.18.09.29.15.02.01.04.02.06.03.05.02.11.05.15.08.03.02.06.03.09.05.09.05.15.08.24.12.03.02.06.03.09.05.08.04.15.08.22.11.04.02.08.04.12.06.06.03.09.04.15.08.05.02.09.05.14.07.06.03.13.06.19.09.04.02.08.04.13.06.06.03.15.07.21.1.04.02.08.04.12.06.05.02.1.05.15.07.06.03.13.06.19.1.05.02.1.05.14.07.04.02.09.04.13.06.06.03.13.07.2.1.05.02.09.05.14.07.05.02.08.04.12.06.07.04.14.07.21.11.03.02.09.04.12.06.07.04.14.07.22.11.03.02.08.04.11.06.06.03.12.06.18.09.05.02.08.04.12.06.07.03.13.07.2.1.05.02.05.03.1.05.08.04.16.08.24.12.03.02.06.03.09.05.07.04.15.07.22.11.03.02.07.03.1.05.07.03.13.06.2.1.03.02.05.03.08.04.08.04.16.08.24.12.03.02.06.03.09.04.08.04.17.08.25.12.03.02.04.02.07.03.08.04.16.08.23.11.02,0,.05.02.06.03.08.04.17.08.25.12.02,0,.05.02.07.03.09.04.17.09.26.13.02,0,.05.02.06.03.09.04.18.09.27.13.02,0,.02,0,.03.02.09.04.17.09.26.13.02,0,.03.01.04.02.09.05.19.09.28.14.02,0,.03.02.05.02.09.05.19.09.28.14l.03.02c.2.1.4.19.59.29.02,0,.01,0,.03.01.1.05.2.1.3.14.02,0,0,0,.02,0,9.58,4.65,19.31,9.02,29.2,13.11l15.29-36.96c-12.77-5.28-25.48-11.18-37.78-17.52h0ZM388.08,1016.52l-12.14,38.11c6.16,1.96,12.37,3.82,18.62,5.56,0,0,0,0,0,0,.33.09.66.18.99.28,0,0,0,0,.01,0,.13.04.26.07.39.11,0,0,0,0,0,0,.2.06.4.11.6.16,0,0,.01,0,.02,0,.13.04.23.06.37.1.01,0,.02,0,.03,0,.2.06.39.11.59.16,0,0,0,0,0,0,.13.04.24.07.38.1.01,0,.03,0,.04.01.2.05.37.1.58.16.02,0,.04.01.06.02.1.03.22.06.32.09.02,0,.05.01.07.02.1.03.22.06.32.09.02,0,.04.01.06.02.07.02.12.03.18.05.02,0,.03,0,.05.01.1.03.23.06.33.09.02,0,.05.01.07.02.1.03.21.06.31.08.02,0,.05.01.07.02.07.02.11.03.18.05.02,0,.04.01.06.02.1.03.21.06.31.08.03,0,.07.02.1.03.1.03.17.05.27.07.03,0,.06.02.1.03.08.02.18.05.27.07.04,0,.07.02.11.03.05.01.12.03.17.04.03,0,.07.02.1.03.1.03.16.04.26.07.04,0,.07.02.11.03.08.02.17.05.26.07.04,0,.07.02.11.03.05.01.12.03.17.05.04,0,.07.02.11.03.08.02.17.04.25.07.04.01.09.02.13.03.07.02.13.04.2.05.06.01.11.03.17.04.05.01.1.03.15.04.05.01.11.03.16.04.07.02.14.04.2.05.05.01.1.02.14.04.07.02.09.02.16.04.07.02.14.04.21.05.03,0,.1.03.13.03.08.02.16.04.23.06.05.01.08.02.13.03.05.01.1.03.16.04.05.01.14.03.19.05.06.02.12.03.18.05.05.01.08.02.13.03.08.02.15.04.23.06.05.01.08.02.13.03.06.02.12.03.18.05.05.01.09.02.14.04.07.02.14.03.2.05.05.01.07.02.12.03.08.02.16.04.24.06.05.01.07.02.12.03.07.02.13.03.2.05.03,0,.11.03.15.04.07.02.13.03.2.05.05.01.06.02.12.03.08.02.17.04.25.06.03,0,.08.02.11.03.08.02.15.04.23.06.05.01.06.02.11.03.07.02.15.04.22.05.03,0,.06.01.09.02.09.02.18.04.27.07.03,0,.06.01.09.02.09.02.18.05.27.07.02,0,.05.01.07.02.08.02.17.04.25.06.03,0,.03,0,.07.02.09.02.19.05.28.07.03,0,.05.01.08.02.09.02.19.05.29.07.03,0,.02,0,.06.01.09.02.18.04.27.07.02,0,.03,0,.05.01.1.02.2.05.3.07.02,0,.04.01.06.01.1.02.2.05.3.07.02,0,.03,0,.05.01.1.03.21.05.31.08h0c.1.03.21.05.31.08.02,0,.03,0,.05.01.1.03.21.05.31.08.02,0,.01,0,.03,0,.22.05.44.11.66.16h.02c.11.03.22.06.32.08.02,0,0,0,.03,0,1.83.44,3.66.86,5.49,1.28l8.9-39c-13.48-3.08-26.99-6.76-40.16-10.96h0ZM469.2,1035.03l-5.61,39.6c8.01,1.13,16.06,2.09,24.17,2.87,0,0,0,0,.01,0,.36.03.69.07,1.05.1,0,0,.01,0,.02,0,.21.02.41.04.62.06,0,0,.02,0,.03,0,.12.01.25.02.37.03.02,0,.04,0,.05,0,.2.02.4.04.59.05.03,0,.05,0,.08,0,.11,0,.2.02.31.03.03,0,.06,0,.09,0,.07,0,.11,0,.18.02.03,0,.06,0,.09,0,.09,0,.2.02.29.03.04,0,.08,0,.12.01.09,0,.17.02.26.02.04,0,.08,0,.13.01.07,0,.09,0,.16.01.05,0,.1,0,.16.01.09,0,.14.01.23.02.04,0,.09,0,.13.01.07,0,.15.01.23.02.05,0,.11,0,.16.01.05,0,.1,0,.15.01.05,0,.11,0,.16.01.07,0,.14.01.21.02.05,0,.1,0,.15.01.05,0,.09,0,.15.01.08,0,.16.01.23.02.05,0,.09,0,.15.01.06,0,.11,0,.17.01.07,0,.11,0,.18.02.06,0,.12.01.19.02.05,0,.07,0,.13.01.09,0,.17.01.26.02.05,0,.07,0,.12.01.06,0,.13.01.19.02.05,0,.1,0,.16.01.07,0,.15.01.22.02.04,0,.08,0,.11,0,.09,0,.18.01.26.02.04,0,.08,0,.11,0,.07,0,.14.01.2.02.04,0,.06,0,.1,0,.09,0,.18.01.27.02.04,0,.08,0,.12,0,.09,0,.18.01.27.02.04,0,.06,0,.09,0,.08,0,.15.01.22.02.04,0,.06,0,.09,0,.09,0,.18.01.28.02.04,0,.06,0,.1,0,.1,0,.19.01.29.02.02,0,.04,0,.06,0,.09,0,.17.01.26.02.02,0,.07,0,.08,0,.09,0,.19.01.28.02.02,0,.07,0,.09,0,.09,0,.18.01.27.02.04,0,.02,0,.06,0,.09,0,.18.01.27.02.02,0,.07,0,.08,0,.1,0,.2.01.29.02.02,0,.05,0,.07,0,.09,0,.19.01.28.02.02,0,.02,0,.04,0,.1,0,.2.01.3.02.02,0,.05,0,.07,0,.1,0,.2.01.3.02.04,0,.03,0,.07,0,.09,0,.18.01.27.02.02,0,.03,0,.05,0,.1,0,.2.01.3.02.04,0,.04,0,.07,0,.1,0,.2.01.3.02.02,0,.04,0,.06,0,.09,0,.17.01.26.02.04,0,.04,0,.07,0,.1,0,.19.01.29.02.04,0,.04,0,.08,0,.1,0,.2.01.3.02.02,0,.04,0,.06,0,.09,0,.18.01.26.02.02,0,.06,0,.08,0,.1,0,.19.01.29.02.02,0,.07,0,.09,0,.09,0,.19.01.28.02h.04c.09,0,.19.01.28.02.02,0,.06,0,.08,0,.1,0,.2.01.3.02.02,0,.05,0,.07,0,.09,0,.18.01.27.02.02,0,.04,0,.06,0,.09,0,.19.01.28.02.04,0,.06,0,.1,0,.09,0,.19.01.28.02.04,0,.05,0,.09,0,.08,0,.16,0,.24.01.04,0,.05,0,.08,0,.09,0,.18.01.28.02.04,0,.07,0,.11,0,.09,0,.18.01.27.02.04,0,.07,0,.1,0,.07,0,.14,0,.2.01.04,0,.08,0,.11,0,.09,0,.18.01.26.02.04,0,.09,0,.12,0,.07,0,.14,0,.22.01.02,0,.05,0,.07,0l2.31-39.93c-13.84-.8-27.79-2.19-41.46-4.12h0ZM593.97,1037.12c-13.73,1.47-27.73,2.39-41.6,2.73l.97,39.99c.05,0,.09,0,.14,0,0,0,.01,0,.02,0,.07,0,.13,0,.21,0,.01,0,.02,0,.04,0,.05,0,.11,0,.16,0,.02,0,.04,0,.06,0,.05,0,.1,0,.16,0,.01,0,.03,0,.04,0,.07,0,.1,0,.17,0,.01,0,.02,0,.03,0,.14,0,.27,0,.42-.01,0,0,.02,0,.03,0,.07,0,.11,0,.18,0,0,0,.02,0,.03,0,.07,0,.12,0,.19,0,0,0,.01,0,.02,0,.14,0,.28,0,.43-.01,0,0,0,0,0,0,.07,0,.13,0,.2,0,.01,0,.02,0,.03,0,.07,0,.12,0,.19,0,0,0,0,0,.01,0,.22,0,.42-.01.64-.02,0,0,0,0,.01,0,.07,0,.12,0,.19,0,.01,0,.02,0,.03,0,.07,0,.12,0,.2,0,0,0,0,0,0,0,.22,0,.42-.01.64-.02,0,0,.02,0,.03,0,.07,0,.12,0,.19,0,0,0,.01,0,.02,0,.22,0,.42-.01.64-.02,0,0,0,0,.01,0,.07,0,.12,0,.2,0h.02c.07,0,.12,0,.2,0,0,0,.01,0,.02,0,.14,0,.28,0,.42-.01,0,0,.01,0,.02,0,.07,0,.12,0,.19,0,.01,0,.02,0,.03,0,.07,0,.11,0,.18,0,.01,0,.02,0,.03,0,.22,0,.41-.02.63-.02.01,0,.02,0,.03,0,.05,0,.11,0,.17,0,.02,0,.03,0,.05,0,.07,0,.11,0,.18,0,0,0,.01,0,.02,0,.14,0,.28-.01.42-.02,0,0,.02,0,.02,0,.07,0,.11,0,.18,0,.01,0,.03,0,.04,0,.07,0,.1,0,.18,0,.01,0,.02,0,.03,0,.14,0,.28-.01.42-.02,0,0,0,0,0,0,.07,0,.12,0,.2,0,.01,0,.03,0,.04,0,.07,0,.09,0,.17,0,.01,0,.03,0,.04,0,.07,0,.11,0,.18,0,0,0,.01,0,.02,0,.14,0,.27-.01.42-.02.01,0,.02,0,.03,0,.07,0,.11,0,.18,0,.01,0,.02,0,.03,0,.07,0,.11,0,.18,0,.01,0,.02,0,.03,0,.14,0,.27-.01.41-.02.01,0,.03,0,.04,0,.05,0,.11,0,.16,0,.02,0,.03,0,.05,0,.07,0,.09,0,.16,0,.01,0,.03,0,.04,0,.07,0,.1,0,.17,0,.01,0,.02,0,.03,0,.07,0,.13,0,.21,0,0,0,0,0,.01,0,.07,0,.12,0,.19,0,.02,0,.03,0,.05,0,.04,0,.11,0,.15,0,.02,0,.04,0,.06,0,.04,0,.11,0,.15,0,.02,0,.03,0,.05,0,.07,0,.12,0,.2,0,0,0,0,0,0,0,.07,0,.13,0,.2,0,.02,0,.03,0,.05,0,.04,0,.11,0,.15,0,.02,0,.05,0,.07,0,.04,0,.09,0,.13,0,.03,0,.05,0,.08,0,.04,0,.08,0,.12,0,.03,0,.06,0,.08,0,.07,0,.11,0,.19,0,.02,0,.05,0,.07,0,.04,0,.09,0,.13,0,.03,0,.06,0,.09,0,.04,0,.08,0,.11,0,.03,0,.06,0,.09,0,.04,0,.05,0,.09,0,.04,0,.07,0,.11,0,.02,0,.07,0,.08,0,.06,0,.12,0,.18,0,.05,0,.06,0,.11,0,.03,0,.07,0,.11,0,.04,0,.05,0,.09,0,.04,0,.07,0,.11,0,.04,0,.05,0,.09,0,.04,0,.07,0,.11,0,.02,0,.08,0,.09,0,.03,0,.07,0,.1,0,.05,0,.08,0,.14,0,.05,0,.11,0,.16,0,.02,0,.05,0,.07,0,.04,0,.08,0,.13,0,.02,0,.05,0,.07,0,.04,0,.08,0,.12,0,.02,0,.05,0,.07,0,.04,0,.08,0,.12,0,.02,0,.03,0,.05,0,.08,0,.16,0,.23-.01.02,0,.07,0,.08,0,.03,0,.07,0,.11,0,.04,0,.05,0,.09,0,.04,0,.08,0,.12,0,.02,0,.05,0,.07,0,.04,0,.08,0,.13,0,.02,0,.03,0,.05,0,.16,0,.32-.02.47-.03h.02c.05,0,.1,0,.15,0h.04s.1,0,.14-.01c.02,0,.01,0,.03,0,.23-.01.45-.03.68-.04h0c.05,0,.11,0,.16,0,.02,0,.01,0,.03,0,.23-.01.45-.03.68-.04h.01c.05,0,.11,0,.16-.01h.02c8.37-.51,16.69-1.21,24.95-2.1l-4.27-39.77h0ZM675.68,1021.38c-13.3,3.74-26.93,6.96-40.52,9.58l7.56,39.28c14.82-2.85,29.42-6.31,43.78-10.35l-10.83-38.51h0ZM753.59,992.22c-12.5,5.92-25.4,11.37-38.35,16.22l14.02,37.46c1.06-.4,2.1-.79,3.16-1.2,0,0,0,0,0,0,.19-.07.38-.14.57-.22,0,0,.02,0,.03-.01.11-.04.21-.08.33-.12.03,0,.05-.02.08-.03.1-.04.19-.07.29-.11.02,0,.05-.02.07-.03.06-.02.11-.04.17-.07.03,0,.05-.02.08-.03.1-.04.18-.07.27-.1.04-.01.07-.03.11-.04.08-.03.15-.06.23-.09.04-.02.09-.04.14-.05.05-.02.08-.03.13-.05.08-.03.15-.06.22-.09.05-.02.07-.03.12-.05.07-.03.14-.05.2-.08.05-.02.08-.03.13-.05.06-.02.13-.05.19-.07.03-.01.07-.03.1-.04.08-.03.17-.06.25-.1.03-.01.06-.02.09-.04.09-.03.17-.07.26-.1.03-.01.04-.02.07-.03.08-.03.16-.06.24-.1.02,0,.03-.01.05-.02.09-.04.18-.07.27-.11.02,0,.06-.02.07-.03.09-.04.18-.07.28-.11.02,0,.04-.02.06-.02.1-.04.2-.08.29-.12h.01c.1-.04.2-.08.3-.12h.03c.1-.05.2-.09.3-.13.02,0,.03-.01.05-.02.1-.04.2-.08.3-.12h.02c.21-.09.42-.17.63-.26.02,0,0,0,.02,0,.1-.04.21-.08.31-.12.02,0,0,0,.02,0,10.47-4.17,20.77-8.66,30.9-13.45l-17.11-36.16h0ZM825.59,950.47c-11.36,7.92-23.18,15.45-35.13,22.38l20.07,34.6c.37-.21.71-.41,1.08-.63,0,0,0,0,.01,0,.18-.1.34-.2.52-.3,0,0,.02,0,.02-.01.1-.06.19-.11.3-.17.03-.02.06-.03.08-.05.07-.04.15-.09.23-.13.04-.02.07-.04.11-.07.04-.03.09-.05.13-.08.07-.04.13-.08.2-.12.04-.03.07-.04.11-.07.07-.04.14-.08.21-.12.03-.02.07-.04.1-.06.07-.04.13-.08.2-.12.03-.02.03-.02.06-.04.08-.05.16-.1.25-.15.03-.02.04-.02.07-.04.09-.05.17-.1.26-.15.01,0,.02-.01.04-.02.09-.05.18-.11.28-.16h.01c.09-.06.19-.12.28-.17h.02c.09-.07.19-.12.28-.18l.03-.02c7.06-4.19,14.01-8.54,20.86-13.04h0c.29-.19.58-.38.87-.57h.01c.09-.07.18-.13.27-.19.01,0,.02-.02.04-.03.09-.06.18-.12.27-.18.01,0,0,0,.02-.01.09-.06.17-.11.26-.17.01,0,.02-.01.03-.02.08-.06.17-.11.25-.17.01,0,.05-.03.06-.04.08-.05.16-.1.24-.16.01,0,.06-.04.07-.05.08-.05.15-.1.23-.15.01,0,.06-.04.07-.05.06-.04.13-.08.19-.13.03-.02.06-.04.09-.06.07-.05.14-.09.21-.14.03-.02.07-.05.1-.07.07-.05.14-.09.2-.14.04-.03.07-.05.11-.07.05-.03.09-.06.14-.09.06-.04.12-.08.17-.12.04-.03.08-.05.12-.08.06-.04.12-.08.17-.12.05-.03.09-.06.14-.09.06-.04.08-.06.14-.09.03-.02.05-.03.08-.05.08-.06.16-.11.25-.17.02-.01.04-.03.06-.04.1-.07.19-.13.28-.19,0,0,.02-.01.03-.02.17-.11.32-.22.49-.33.01,0,.02-.01.03-.02.1-.07.21-.14.31-.21h0c2.07-1.41,4.16-2.84,6.21-4.27l-22.88-32.81h0ZM889.72,897.35c-9.89,9.68-20.31,19.07-30.96,27.89l25.52,30.8c5.33-4.41,10.57-8.93,15.72-13.54h0c.26-.23.51-.46.77-.7.01-.01,0,0,.02-.02.08-.07.16-.14.24-.22.01-.01.02-.02.03-.03.08-.07.16-.14.24-.21l.02-.02c.08-.07.15-.14.23-.21.01-.01.01-.01.02-.02.08-.07.15-.14.23-.21.01-.01.03-.03.04-.04.08-.07.15-.14.23-.21.01-.01.03-.02.04-.03.08-.07.15-.14.23-.21.01-.01.01-.01.02-.02.07-.07.15-.13.22-.2.01-.01.02-.02.04-.03.07-.07.15-.13.22-.2.02-.02.03-.03.05-.05.07-.07.14-.13.22-.2.01-.01.04-.03.05-.04.07-.06.13-.12.2-.18.02-.02.03-.03.06-.05.06-.06.13-.11.19-.17.02-.02.04-.03.06-.06.07-.06.13-.12.2-.18.02-.02.05-.05.08-.07.07-.06.13-.12.2-.18.02-.02.04-.04.07-.06.05-.05.11-.1.16-.15.04-.03.07-.07.11-.1.05-.05.1-.09.15-.14.04-.03.06-.05.09-.08.06-.05.12-.11.18-.16.02-.02.07-.07.1-.09.05-.05.1-.09.15-.14.05-.05.08-.07.13-.12.04-.03.07-.07.11-.1.05-.05.11-.11.16-.15.03-.03.07-.06.1-.1.04-.03.08-.07.12-.11.05-.05.11-.1.16-.15.04-.03.08-.08.12-.11.03-.03.06-.06.1-.09.06-.06.12-.11.18-.17.03-.02.05-.05.08-.07.07-.07.13-.12.21-.19.02-.02.05-.04.07-.07.05-.05.08-.08.13-.12,0,0,0,0,0,0,.1-.09.18-.16.27-.25.02-.01.03-.03.05-.04.07-.07.17-.15.24-.22.01-.01.03-.03.04-.04.25-.23.47-.44.72-.67,0,0,.01-.01.02-.02.1-.09.18-.17.28-.26,0,0,0,0,0,0,3.12-2.91,6.2-5.86,9.25-8.84l-27.98-28.59h0ZM944.21,834.37c-8.15,11.17-16.88,22.15-25.94,32.61l30.25,26.17c2.91-3.36,5.78-6.76,8.61-10.2h0c.22-.28.44-.54.66-.81.01-.01,0,0,.01-.02.07-.08.14-.17.21-.26.01-.01,0,0,.02-.02.14-.17.28-.35.43-.52h.01c.07-.1.14-.18.21-.27.01-.01.01-.01.02-.03.07-.08.14-.17.2-.25.01-.01.01-.02.03-.03.14-.17.27-.33.41-.5.01-.01.02-.03.03-.04.06-.08.13-.16.19-.23.02-.03.02-.02.04-.05.06-.08.13-.16.19-.24l.03-.04c.06-.08.13-.16.19-.24h.01c.06-.09.13-.17.19-.25.01-.01.03-.04.04-.05.06-.08.12-.15.18-.23.01-.01.03-.04.04-.05.06-.08.12-.15.19-.23.01-.01.03-.03.04-.05.06-.07.11-.14.17-.21.01-.01.02-.03.04-.04.06-.07.12-.15.18-.22.02-.03.04-.05.06-.07.06-.07.11-.14.17-.21.01-.01.04-.05.05-.07.06-.07.12-.15.18-.22.01-.01.03-.04.04-.06.05-.06.1-.13.15-.19.02-.03.03-.03.05-.06.06-.07.11-.14.17-.21.02-.03.05-.06.07-.09.05-.07.11-.14.16-.2.02-.03.04-.05.06-.08.05-.06.09-.12.14-.18.03-.04.05-.07.08-.11.04-.05.09-.11.13-.16.02-.03.05-.06.07-.09.05-.07.1-.13.16-.2.02-.03.06-.07.08-.1.05-.06.1-.13.15-.19.03-.04.04-.05.07-.09.04-.05.08-.1.12-.15.04-.05.07-.09.11-.14.04-.05.07-.09.11-.14.03-.04.05-.07.09-.11.05-.06.1-.12.14-.18.03-.04.06-.08.09-.12.04-.05.07-.09.11-.14.04-.05.08-.11.13-.16.03-.04.06-.07.09-.11.05-.07.08-.11.14-.17.03-.04.06-.08.1-.12.03-.04.06-.08.09-.12.05-.06.09-.11.14-.17.03-.04.07-.09.1-.13.03-.04.06-.07.09-.11.05-.07.09-.11.14-.18.03-.04.05-.07.08-.11.05-.07.1-.12.15-.19.03-.03.05-.07.08-.1.03-.04.07-.09.1-.13.02-.03.04-.06.07-.08.05-.07.12-.15.17-.22.02-.02.04-.05.06-.07.06-.08.11-.15.18-.23.02-.02.04-.05.06-.07.07-.09.14-.18.21-.27,0,0,.01-.02.02-.02.12-.16.24-.31.36-.47,0,0,.01-.02.02-.03.07-.09.15-.19.22-.28,0-.01.02-.02.03-.03.21-.27.4-.52.61-.78,0,0,0,0,.01-.01,3.12-4.04,6.18-8.11,9.19-12.23l-32.31-23.58h0ZM987.51,763.28c-6.18,12.36-12.97,24.62-20.17,36.44l34.16,20.81c4.84-7.94,9.47-16.01,13.9-24.21,0,0,0,0,0,0,.06-.12.13-.23.19-.35,0,0,0,0,0,0,.1-.18.18-.34.28-.52,0-.02.02-.03.03-.05.05-.09.11-.2.15-.29.01-.02.02-.04.04-.07.04-.07.1-.18.14-.25.02-.03.03-.06.05-.09.02-.04.05-.1.08-.14.03-.05.05-.09.08-.14.03-.06.07-.13.1-.19.02-.04.05-.09.07-.13.02-.05.07-.13.09-.17.03-.05.06-.11.08-.16.02-.05.04-.08.07-.12.04-.07.08-.14.11-.21.02-.05.03-.06.06-.11.04-.07.08-.14.11-.21.02-.03.03-.06.05-.09.04-.07.07-.14.11-.21.02-.03.03-.05.04-.08.04-.08.09-.16.13-.24.02-.03.03-.05.04-.08.04-.08.09-.16.13-.25.02-.03.02-.03.03-.06.04-.08.09-.17.13-.25,0-.02,0,0,.01-.02.05-.09.1-.19.15-.28,0-.02.02-.03.02-.05.05-.09.1-.18.14-.27,0-.02.02-.04.03-.05.05-.09.1-.19.15-.28,0-.02,0,0,0,0,.05-.1.11-.2.16-.31h0c.05-.1.11-.21.16-.31h0c.05-.11.11-.21.16-.32h0c1.52-2.91,3.02-5.84,4.49-8.78l-35.78-17.89h0ZM1018.35,686.02c-4.03,13.22-8.67,26.44-13.8,39.28l37.15,14.83h0c.04-.1.08-.21.12-.31,0-.02,0-.01.01-.03.04-.1.08-.21.12-.31v-.02c.09-.21.17-.42.26-.63v-.02c.05-.1.09-.21.13-.31,0-.02,0,0,0-.02.13-.32.25-.64.38-.95v-.03c.05-.1.09-.21.13-.31h0c.08-.22.17-.43.25-.65,0-.02,0,0,0-.01.04-.1.08-.21.12-.31v-.02c.09-.21.17-.42.25-.63h0c.04-.12.08-.22.12-.32,0-.02,0,0,0-.02.08-.21.16-.42.25-.64h0c.04-.11.08-.21.12-.32v-.03c.05-.1.09-.21.13-.31h0c.08-.23.16-.44.25-.65,0-.02,0,0,0-.01.04-.11.08-.21.12-.32h0c.08-.22.16-.44.24-.65h0c.04-.12.08-.23.12-.33h0c.12-.33.24-.65.37-.98v-.02c.05-.11.09-.21.13-.32h0c.08-.22.16-.43.24-.65,0-.02,0,0,0-.02.04-.1.08-.21.12-.31,0-.02,0,0,0-.02.08-.21.16-.42.24-.64h0c.04-.12.08-.22.12-.33h0c.12-.34.24-.66.36-.98h0c.12-.34.24-.67.36-.99,0-.02,0,0,0,0,.16-.44.32-.88.48-1.31h0c.12-.33.24-.65.36-.98v-.02c.13-.33.24-.65.36-.98h0c.04-.11.08-.22.12-.33h0c.12-.33.24-.66.35-.99h0c.12-.34.23-.67.35-.99h0c.04-.12.08-.23.12-.34h0c.08-.22.15-.44.23-.65,0-.02,0,0,0-.02.04-.11.07-.21.11-.32,0-.02,0,0,0-.02.08-.21.15-.43.23-.64v-.02c.04-.1.08-.21.12-.31v-.03c.05-.1.08-.21.12-.32h0c.08-.22.15-.43.22-.65,0-.02,0-.02.01-.03.04-.1.07-.21.11-.31v-.02c.08-.21.15-.42.23-.63,0-.02,0-.02.01-.03.04-.1.07-.2.11-.3,0-.02,0-.02.01-.03.07-.21.15-.42.22-.63v-.02c.04-.1.08-.21.11-.31v-.03c.05-.1.08-.21.12-.31v-.02c.04-.11.08-.21.12-.32h0c.04-.11.07-.21.11-.32,0-.02,0-.02.01-.04.03-.1.07-.2.1-.3v-.03c.05-.1.08-.2.11-.3h0c.03-.11.07-.22.1-.32,0-.02,0-.02.01-.04.03-.1.07-.2.1-.3,0-.02,0-.02.01-.04.03-.1.07-.21.1-.31h0c.03-.1.07-.2.1-.3,0-.02.01-.03.02-.05.03-.1.06-.19.1-.29,0-.02.01-.04.02-.06.03-.1.07-.19.1-.29,0-.02,0-.03.01-.04.03-.09.06-.18.09-.28,0-.02,0-.02.01-.04.03-.09.06-.19.1-.29,0-.02.02-.05.02-.07.03-.09.06-.19.09-.28,0-.02.01-.04.02-.06.03-.09.06-.18.09-.27,0-.02,0-.01,0-.03.03-.1.06-.19.1-.29,0-.02.01-.05.02-.06.03-.09.06-.18.09-.28,0-.02.02-.06.03-.08.03-.09.06-.18.09-.27,0-.02.02-.05.02-.06.03-.08.05-.16.08-.24.01-.03.02-.05.03-.08.03-.09.06-.17.09-.26.01-.03.02-.06.03-.1.03-.09.06-.17.08-.26.01-.03.02-.06.03-.09.02-.07.04-.14.07-.21.01-.03.02-.06.03-.09.03-.08.05-.17.08-.25.01-.03.02-.07.03-.1.03-.08.06-.17.08-.25.01-.03.02-.07.03-.1.02-.07.05-.14.07-.21.01-.03.03-.09.04-.12.02-.07.05-.14.07-.21.02-.05.02-.06.03-.11.03-.08.05-.16.08-.24.02-.05.02-.07.04-.12.02-.06.04-.13.06-.19.02-.05.04-.11.05-.16.02-.05.03-.11.05-.16.02-.05.03-.09.04-.14.02-.07.05-.15.07-.22.01-.03.03-.1.04-.13.02-.06.04-.13.06-.19.02-.07.03-.11.06-.17.02-.05.03-.09.04-.14.03-.08.04-.12.07-.2.02-.05.03-.1.05-.15.02-.05.03-.1.05-.15.02-.06.04-.12.06-.18.02-.07.04-.11.06-.18.01-.04.03-.08.04-.12.02-.07.06-.18.08-.24.01-.04.02-.07.04-.11.06-.18.11-.36.17-.54,0-.02.02-.05.02-.07.03-.1.06-.2.1-.3,0-.02.02-.05.02-.07.03-.1.07-.23.1-.33,0-.01,0-.03.01-.05.02-.07.04-.12.06-.19,0,0,0-.02,0-.03.04-.13.07-.22.11-.36,0-.01,0-.03.01-.04.04-.13.07-.24.11-.37,0,0,0,0,0-.01.06-.2.12-.39.18-.58,0,0,0-.01,0-.02.3-.96.6-1.92.89-2.88l-38.26-11.66h0ZM1035.86,604.68c-1.77,13.73-4.14,27.54-7.05,41.04l39.1,8.41c.67-3.13,1.32-6.28,1.94-9.43,0,0,0-.01,0-.02.04-.21.08-.4.12-.6,0-.01,0-.02,0-.04.02-.1.05-.24.07-.34,0-.02,0-.05.01-.07.02-.12.05-.26.07-.38,0,0,0,0,0,0,.01-.07.02-.11.04-.18,0-.03.01-.07.02-.1.02-.1.03-.16.05-.26,0-.04.02-.09.02-.13,0-.05.02-.1.03-.15.01-.08.03-.15.04-.23,0-.05.02-.09.03-.14.01-.06.02-.11.03-.17.01-.07.02-.11.03-.18.01-.06.02-.12.03-.18,0-.05.01-.07.02-.12.02-.08.03-.17.05-.25,0-.03.02-.09.02-.12.01-.07.03-.14.04-.21,0-.05.02-.09.03-.14.01-.07.03-.14.04-.2,0-.03.01-.08.02-.11.02-.09.03-.17.05-.26,0-.03.01-.07.02-.1.02-.09.03-.17.05-.26,0-.02.01-.06.01-.08.02-.08.03-.16.05-.24,0-.02.01-.07.02-.09.02-.09.03-.19.05-.28,0-.02.01-.06.01-.08.02-.1.04-.2.05-.29,0-.02,0-.02,0-.03.02-.09.03-.18.05-.28,0-.02,0-.05.01-.07.02-.1.04-.19.05-.29,0-.02,0-.05.01-.07.02-.1.04-.2.05-.29,0-.02,0-.02,0-.03.02-.1.04-.19.05-.29,0-.02,0-.03,0-.05.02-.1.04-.2.06-.31,0-.02,0-.03,0-.05.04-.21.08-.42.11-.63,0-.02,0-.03,0-.05.02-.1.04-.21.06-.31,0-.02,0-.01,0-.03.04-.22.08-.44.12-.66,0-.02,0-.01,0-.03.02-.11.04-.21.06-.32,0-.02,0-.02,0-.04.04-.22.08-.43.11-.65,0-.02,0-.01,0-.03.02-.11.04-.22.06-.33,0-.02,0,0,0-.02.04-.22.08-.44.12-.66,0-.02,0-.01,0-.03.02-.11.04-.22.06-.32,0-.02,0,0,0-.03.04-.22.08-.44.11-.66,0-.02,0-.02,0-.04l.06-.32s0,0,0-.02c.04-.22.08-.44.11-.66,0-.02,0,0,0-.03.02-.11.04-.22.05-.32,0-.02,0-.02,0-.03.04-.22.07-.44.11-.65,0-.02,0-.01,0-.03.02-.11.04-.22.05-.33v-.02c.04-.22.08-.45.11-.67,0-.02,0,0,0-.02.02-.11.04-.22.05-.33v-.02c.04-.22.08-.44.11-.66,0-.02,0-.02,0-.04.02-.11.04-.22.05-.32v-.02c.04-.22.07-.44.11-.66,0-.02,0-.02,0-.04.02-.1.03-.21.05-.31,0-.02,0-.03,0-.05.02-.1.03-.2.05-.3,0-.02,0,0,0-.02.02-.11.03-.21.05-.31,0-.02,0-.03,0-.05.02-.1.03-.21.05-.31,0-.02,0-.02,0-.04.02-.1.03-.21.05-.31,0-.02,0,0,0-.02.02-.1.03-.21.05-.31,0-.02,0-.04,0-.06.02-.1.03-.2.05-.31,0-.02,0-.03,0-.05.02-.1.03-.2.05-.3,0-.02,0,0,0-.02.02-.1.03-.21.05-.31,0-.02,0-.04,0-.06.02-.1.03-.2.05-.31,0-.02,0-.03,0-.05.02-.1.03-.2.05-.3,0-.02,0,0,0-.02.02-.1.03-.21.05-.31,0-.02,0-.04,0-.06.02-.1.03-.2.05-.3,0-.02,0-.04,0-.05.01-.1.03-.19.04-.29,0-.02,0-.02,0-.03.02-.1.03-.2.05-.3,0-.03,0-.04.01-.08.01-.1.03-.19.04-.29t.01-.07c.01-.09.03-.17.04-.25,0-.02,0-.05,0-.06.01-.1.03-.19.04-.29,0-.03,0-.04.01-.08.01-.1.03-.19.04-.29,0-.03,0-.03.01-.07.01-.09.03-.17.04-.26,0-.02,0-.05,0-.06.01-.1.03-.19.04-.29,0-.03,0-.05.01-.08.01-.1.03-.19.04-.29,0-.03,0-.04.01-.07.01-.09.03-.18.04-.26v-.05c.02-.1.04-.19.05-.29,0-.04,0-.05.01-.09.01-.09.03-.19.04-.28,0-.04,0-.05.01-.08.01-.08.02-.16.04-.25,0-.02,0-.05,0-.07.01-.09.03-.19.04-.28,0-.03,0-.06.01-.09.01-.09.03-.19.04-.28,0-.04,0-.04.01-.08.01-.08.02-.16.03-.24,0-.04,0-.04.01-.08.01-.09.03-.19.04-.28,0-.04,0-.06.01-.09.01-.09.03-.19.04-.28,0-.04,0-.04.01-.07.01-.09.02-.17.04-.26,0-.02,0-.04,0-.06.01-.1.03-.19.04-.29,0-.04,0-.05.01-.08.01-.1.03-.19.04-.29,0-.04,0-.03,0-.06.01-.09.03-.18.04-.27,0-.02,0-.03,0-.05.01-.1.03-.2.04-.3,0-.04,0-.04,0-.07.01-.1.03-.2.04-.29,0-.04,0-.03,0-.07.01-.09.02-.18.04-.27,0-.02,0-.04,0-.06.01-.1.03-.2.04-.29,0-.04,0-.04.01-.08.01-.1.03-.2.04-.3,0-.02,0-.04,0-.05.01-.09.02-.18.04-.27,0-.02,0-.04,0-.06.01-.1.03-.2.04-.3,0-.04,0-.03,0-.06.01-.1.03-.2.04-.31,0-.02,0-.03,0-.04.01-.1.03-.19.04-.29,0-.02,0-.03,0-.05.01-.1.03-.2.04-.31,0-.04,0-.03,0-.06.01-.1.03-.21.04-.31,0-.02,0,0,0-.02.01-.11.03-.21.04-.32v-.03c.02-.11.03-.21.05-.32v-.04c.02-.11.03-.22.05-.33,0-.02,0,.01,0,0l-39.67-5.12h0ZM1079.64,519.98l-39.97,1.46c.22,6.15.34,12.39.34,18.56,0,7.7-.18,15.5-.53,23.16l39.96,1.82c.3-6.59.48-13.22.54-19.87,0-.02,0,0,0-.02,0-.06,0-.11,0-.17v-.04c0-.05,0-.1,0-.16,0-.02,0-.03,0-.05,0-.05,0-.1,0-.15,0-.02,0-.02,0-.04,0-.06,0-.11,0-.17v-.03c0-.24,0-.49,0-.73v-.03s0-.1,0-.15c0-.02,0-.04,0-.06,0-.04,0-.08,0-.12,0-.04,0-.06,0-.09,0-.04,0-.08,0-.12,0-.04,0-.05,0-.08,0-.04,0-.08,0-.12,0-.04,0-.06,0-.09,0-.04,0-.08,0-.12,0-.02,0-.07,0-.09,0-.04,0-.08,0-.11,0-.04,0-.07,0-.1,0-.04,0-.07,0-.11,0-.04,0-.07,0-.11,0-.04,0-.09,0-.13,0-.05,0-.11,0-.16,0-.03,0-.05,0-.08,0-.05,0-.08,0-.13,0-.03,0-.05,0-.08,0-.04,0-.09,0-.12,0-.03,0-.06,0-.09,0-.04,0-.09,0-.12,0-.03,0-.06,0-.09,0-.04,0-.08,0-.12,0-.03,0-.06,0-.09,0-.04,0-.09,0-.12,0-.03,0-.06,0-.09,0-.04,0-.08,0-.12,0-.03,0-.06,0-.09v-.13s0-.05,0-.07v-.21h0c0-.09,0-.19,0-.28v-.07c0-.08,0-.16,0-.24v-.05c0-.09,0-.18,0-.27,0-.02,0-.06,0-.08,0-.07,0-.14,0-.21,0-.02,0-.06,0-.08,0-.09,0-.18,0-.27,0-.04,0-.03,0-.06,0-.07,0-.15,0-.22,0-.02,0-.06,0-.08,0-.09,0-.18,0-.27,0-.02,0-.03,0-.05,0-.07,0-.15,0-.22,0-.04,0-.06,0-.1,0-.07,0-.14,0-.21,0-.02,0-.05,0-.07,0-.09,0-.17,0-.26,0-.04,0-.06,0-.1,0-.06,0-.13,0-.19,0-.04,0-.05,0-.08,0-.09,0-.17,0-.26,0-.04,0-.07,0-.11,0-.06,0-.11,0-.17,0-.05,0-.06,0-.12,0-.08,0-.16,0-.24,0-.04,0-.08,0-.12,0-.05,0-.1,0-.15,0-.04,0-.1,0-.13,0-.05,0-.1,0-.15,0-.07,0-.13,0-.2,0-.05,0-.1,0-.15,0-.04,0-.1,0-.14,0-.04,0-.09,0-.13,0-.07,0-.17,0-.24,0-.04,0-.08,0-.12,0-.05,0-.1,0-.16,0-.04,0-.07,0-.11,0-.18,0-.36,0-.54,0-.03,0-.06,0-.09,0-.05,0-.12,0-.17,0-.02,0-.04,0-.07,0-.11,0-.23,0-.34,0-.02,0-.04,0-.06,0-.07,0-.12,0-.19,0,0,0-.02,0-.03,0-.22,0-.4,0-.62,0-.01,0-.02,0-.03,0-.22,0-.41,0-.63,0,0,0,0,0,0-.06-3.7-.16-7.39-.29-11.08h0ZM1068.94,430.73l-39.18,8.05c2.78,13.53,5.03,27.36,6.67,41.11l39.72-4.75c-.42-3.51-.88-7.02-1.36-10.51h0c-.03-.23-.06-.46-.09-.68,0-.02,0-.02,0-.04-.01-.11-.03-.21-.04-.32,0-.02,0-.03,0-.04-.02-.11-.03-.21-.05-.32h0c-.01-.11-.03-.21-.04-.31,0-.02,0-.04,0-.06-.01-.1-.03-.2-.04-.29,0-.02,0-.06-.01-.08-.01-.09-.03-.18-.04-.27,0-.02,0-.03,0-.05-.01-.09-.03-.19-.04-.28,0-.02-.01-.07-.01-.09-.01-.09-.03-.18-.04-.28,0-.02-.01-.07-.01-.09-.01-.08-.02-.16-.03-.23,0-.04,0-.06-.01-.1-.01-.08-.02-.16-.04-.24,0-.03-.01-.08-.02-.11-.01-.09-.03-.17-.04-.26,0-.05,0-.07-.02-.12,0-.06-.02-.13-.03-.19,0-.05-.02-.12-.02-.17,0-.06-.02-.12-.03-.19,0-.05-.01-.09-.02-.14-.01-.08-.02-.16-.04-.24,0-.05-.01-.09-.02-.14,0-.05-.01-.1-.02-.14-.01-.07-.02-.16-.03-.23,0-.05-.01-.09-.02-.14,0-.05-.02-.11-.02-.16,0-.05-.01-.1-.02-.15-.01-.09-.02-.16-.04-.24,0-.04-.01-.07-.02-.11-.01-.09-.03-.17-.04-.26,0-.04-.01-.08-.02-.13,0-.05-.02-.12-.03-.17,0-.04-.01-.07-.02-.11-.01-.09-.03-.19-.04-.28,0-.03,0-.06-.01-.09-.02-.1-.03-.2-.05-.3,0-.03,0-.06-.01-.08-.01-.07-.02-.11-.03-.18,0-.02,0-.03,0-.05-.02-.1-.04-.23-.05-.34,0-.03,0-.05-.01-.08-.02-.12-.04-.25-.06-.37,0,0,0,0,0,0-.03-.21-.06-.41-.1-.62,0,0,0-.01,0-.02-.06-.35-.11-.69-.16-1.03,0,0,0,0,0,0-.81-5.09-1.7-10.14-2.65-15.18,0,0,0,0,0,0-.03-.14-.05-.25-.07-.39,0,0,0-.02,0-.03-.04-.19-.08-.4-.11-.59,0-.02,0-.05-.01-.07-.02-.1-.04-.22-.06-.32,0-.02,0-.04-.01-.07-.04-.19-.07-.38-.11-.57,0-.03,0-.05-.01-.08-.02-.1-.04-.21-.06-.31,0-.03,0-.05-.01-.08-.01-.07-.02-.11-.04-.18,0-.03-.01-.06-.02-.08-.02-.1-.04-.19-.06-.29,0-.04-.01-.07-.02-.11-.02-.09-.03-.16-.05-.25,0-.04-.02-.09-.03-.14-.01-.05-.02-.1-.03-.15-.01-.06-.02-.13-.04-.19-.01-.07-.02-.11-.04-.18-.01-.05-.02-.11-.03-.16-.01-.05-.02-.1-.03-.15-.01-.07-.03-.14-.04-.22,0-.03-.02-.09-.03-.13-.02-.08-.03-.16-.05-.25,0-.03-.01-.07-.02-.11-.01-.07-.03-.13-.04-.2,0-.03-.01-.07-.02-.11-.02-.08-.03-.17-.05-.25,0-.03-.01-.07-.02-.11-.02-.09-.04-.18-.05-.27,0-.03,0-.05-.02-.08-.02-.08-.03-.16-.05-.24,0-.03,0-.03-.01-.07-.02-.09-.04-.19-.06-.28,0-.03,0-.05-.02-.08-.02-.1-.04-.19-.06-.29,0-.02,0-.03,0-.04-.02-.1-.04-.19-.06-.29,0-.02,0-.01,0-.03-.02-.1-.04-.21-.06-.31v-.04c-.03-.11-.05-.21-.07-.32h0ZM1043.52,344.5l-37.28,14.49c5.01,12.89,9.53,26.14,13.43,39.4l38.37-11.31c-.48-1.63-.97-3.25-1.46-4.87,0,0,0-.01,0-.02-.04-.13-.08-.25-.12-.38,0,0,0,0,0,0-.06-.2-.12-.39-.18-.59,0-.01,0-.02,0-.03-.04-.12-.07-.23-.11-.34,0-.02-.01-.04-.02-.06-.06-.2-.11-.36-.17-.56,0-.02-.01-.04-.02-.06-.03-.1-.06-.2-.09-.3,0-.03-.02-.06-.03-.09-.03-.08-.06-.19-.08-.27-.01-.04-.02-.07-.03-.1-.02-.07-.03-.1-.05-.17,0-.03-.02-.06-.03-.09-.03-.08-.06-.2-.09-.28-.01-.03-.02-.07-.03-.1-.03-.1-.05-.17-.08-.26-.01-.03-.02-.07-.03-.1-.02-.05-.04-.12-.05-.17-.02-.07-.04-.13-.06-.2-.02-.05-.03-.11-.05-.16-.01-.04-.02-.07-.04-.11-.03-.08-.06-.18-.08-.26-.01-.03-.02-.07-.03-.1-.03-.08-.05-.16-.08-.24-.01-.04-.03-.08-.04-.13-.02-.07-.03-.09-.05-.16-.01-.04-.02-.08-.04-.12-.03-.08-.05-.16-.08-.24-.01-.04-.02-.07-.04-.11-.03-.08-.05-.15-.08-.24-.01-.04-.03-.08-.04-.13-.02-.07-.03-.09-.05-.16-.02-.05-.03-.1-.05-.15-.02-.07-.05-.15-.07-.21-.01-.04-.03-.09-.04-.13-.02-.07-.05-.16-.07-.22-.01-.04-.03-.09-.04-.13-.02-.05-.03-.1-.05-.15-.02-.07-.05-.14-.07-.22-.02-.05-.03-.09-.04-.14-.02-.05-.03-.1-.05-.15-.02-.07-.04-.14-.07-.2-.01-.05-.03-.09-.05-.14-.02-.05-.03-.09-.05-.14-.02-.07-.05-.14-.07-.22-.02-.05-.03-.1-.05-.15-.02-.06-.04-.12-.06-.18-.02-.05-.04-.12-.05-.17-.02-.06-.04-.11-.05-.17-.02-.05-.03-.1-.05-.15-.02-.07-.04-.14-.07-.2-.01-.03-.03-.1-.04-.13-.02-.08-.05-.15-.07-.23-.02-.05-.03-.08-.04-.13-.02-.05-.03-.1-.05-.16-.02-.05-.04-.13-.06-.18-.02-.06-.04-.12-.06-.17-.02-.05-.03-.08-.04-.13-.03-.08-.05-.15-.08-.23-.02-.05-.03-.08-.04-.13-.02-.05-.03-.11-.05-.16-.02-.07-.04-.12-.06-.19-.02-.05-.03-.11-.05-.16-.02-.05-.03-.08-.04-.13-.02-.08-.05-.15-.08-.23-.02-.05-.03-.08-.04-.13-.02-.07-.05-.15-.07-.22-.01-.03-.03-.09-.04-.12-.02-.06-.04-.12-.06-.18-.01-.03-.03-.08-.04-.12-.03-.08-.05-.16-.08-.24-.01-.03-.03-.08-.04-.12-.03-.08-.05-.16-.08-.24-.01-.03-.03-.08-.04-.11-.02-.06-.04-.12-.06-.18-.02-.05-.03-.1-.05-.15-.02-.07-.04-.13-.07-.2-.02-.05-.02-.07-.04-.12-.03-.08-.05-.16-.08-.23-.02-.05-.02-.07-.04-.12-.02-.06-.04-.12-.06-.19-.02-.05-.03-.1-.05-.15-.02-.06-.04-.13-.06-.19-.02-.05-.02-.06-.04-.11-.03-.08-.05-.16-.08-.24-.01-.03-.03-.08-.04-.11-.03-.08-.05-.16-.08-.24-.01-.03-.03-.07-.04-.11-.02-.06-.04-.13-.07-.19-.01-.03-.03-.07-.04-.11-.03-.08-.05-.16-.08-.24-.01-.03-.03-.09-.04-.12-.03-.08-.05-.16-.08-.23-.01-.03-.03-.08-.04-.12-.02-.06-.04-.12-.06-.18-.02-.05-.03-.08-.05-.13-.02-.07-.05-.14-.07-.21-.02-.05-.02-.07-.04-.12-.03-.08-.05-.16-.08-.23-.02-.05-.02-.06-.04-.11-.02-.06-.04-.13-.07-.19-.02-.05-.03-.1-.05-.15-.02-.06-.04-.13-.07-.19-.02-.05-.02-.06-.04-.11-.03-.08-.06-.16-.08-.24-.01-.03-.03-.08-.04-.11-.02-.07-.05-.14-.07-.21-.02-.05-.03-.09-.05-.14-.02-.06-.04-.12-.06-.18-.01-.03-.03-.08-.04-.12-.03-.08-.05-.16-.08-.23-.01-.03-.03-.09-.04-.12-.03-.08-.06-.16-.08-.24-.01-.03-.02-.07-.04-.1-.02-.06-.05-.13-.07-.2-.02-.05-.02-.07-.04-.12-.03-.07-.05-.15-.08-.22-.01-.03-.03-.09-.04-.12-.03-.08-.06-.16-.08-.24-.02-.05-.02-.06-.04-.11-.02-.06-.04-.13-.07-.19-.01-.03-.04-.11-.05-.14-.02-.07-.05-.13-.07-.2-.02-.05-.02-.06-.04-.11-.03-.08-.06-.16-.08-.24-.02-.05-.03-.07-.04-.12-.02-.07-.05-.13-.07-.2-.02-.05-.03-.09-.05-.13-.02-.06-.04-.12-.07-.18-.01-.03-.03-.08-.04-.11-.03-.08-.06-.16-.08-.24-.01-.03-.03-.08-.04-.11-.03-.08-.06-.16-.09-.24-.01-.03-.03-.07-.04-.1-.02-.06-.05-.13-.07-.19-.01-.03-.03-.08-.04-.11-.03-.08-.05-.15-.08-.23-.01-.03-.03-.08-.04-.11-.03-.08-.06-.16-.09-.24-.02-.05-.02-.06-.04-.11-.02-.06-.04-.12-.07-.18-.02-.05-.04-.1-.05-.15-.02-.06-.05-.13-.07-.19-.02-.05-.02-.06-.04-.11-.03-.08-.06-.16-.09-.24-.01-.03-.03-.08-.04-.11-.03-.07-.05-.14-.08-.21-.02-.05-.03-.08-.05-.13-.02-.06-.04-.12-.06-.18-.01-.03-.03-.08-.04-.12-.03-.08-.06-.16-.09-.24-.01-.03-.03-.08-.04-.11-.03-.08-.06-.16-.09-.24-.01-.03-.03-.08-.04-.11-.02-.06-.04-.12-.07-.18-.02-.05-.03-.07-.04-.12-.03-.07-.05-.14-.08-.21-.01-.03-.03-.09-.04-.12-.03-.08-.06-.15-.08-.23-.02-.05-.02-.07-.04-.12-.02-.06-.05-.13-.07-.19-.01-.03-.04-.1-.05-.13-.02-.06-.05-.13-.07-.19-.02-.05-.03-.07-.04-.12-.03-.08-.06-.15-.08-.23-.02-.05-.03-.07-.04-.12-.02-.07-.05-.13-.07-.2-.02-.05-.03-.09-.05-.14-.02-.06-.04-.12-.07-.18-.01-.03-.03-.08-.04-.11-.03-.08-.06-.16-.09-.24-.01-.03-.03-.08-.04-.11-.03-.08-.06-.16-.09-.23-.01-.03-.03-.08-.04-.11-.02-.06-.04-.12-.07-.18-.01-.03-.03-.08-.04-.11-.03-.08-.06-.15-.09-.23-.01-.03-.03-.08-.04-.12-.03-.08-.06-.16-.09-.23-.01-.03-.03-.08-.04-.11-.02-.06-.05-.12-.07-.18-.02-.05-.04-.1-.06-.15-.02-.06-.05-.12-.07-.19-.02-.05-.02-.07-.04-.11-.03-.08-.06-.15-.09-.23-.02-.05-.03-.07-.04-.12-.02-.06-.05-.13-.07-.19-.02-.05-.03-.09-.05-.14-.02-.06-.04-.12-.07-.18-.01-.03-.03-.08-.04-.11-.03-.08-.06-.16-.09-.23-.01-.03-.03-.08-.04-.12-.03-.07-.06-.15-.08-.22-.01-.03-.03-.09-.05-.12-.02-.06-.05-.12-.07-.18-.01-.03-.03-.09-.05-.12-.03-.07-.06-.15-.08-.22-.01-.03-.03-.08-.04-.12-.03-.08-.06-.16-.09-.24-.01-.03-.03-.07-.04-.1-.02-.06-.05-.13-.07-.19-.02-.05-.03-.08-.05-.13-.03-.07-.05-.13-.08-.2-.02-.05-.02-.06-.04-.11-.03-.08-.06-.15-.09-.23-.02-.05-.03-.07-.05-.12-.02-.06-.05-.13-.07-.19-.02-.05-.03-.09-.05-.13-.02-.06-.05-.13-.07-.19-.01-.03-.03-.08-.04-.11-.03-.08-.06-.15-.09-.23-.01-.03-.03-.09-.05-.12-.03-.07-.05-.14-.08-.21-.02-.05-.03-.08-.05-.13-.02-.06-.04-.12-.07-.17-.01-.03-.03-.07-.04-.1-.03-.08-.06-.16-.09-.24-.01-.03-.03-.08-.04-.11-.03-.08-.06-.16-.09-.24-.01-.03-.03-.07-.04-.1-.02-.06-.05-.13-.07-.19-.01-.03-.02-.04-.03-.07h0ZM1004.07,263.72l-34.35,20.49c7.09,11.88,13.76,24.21,19.83,36.62l35.94-17.56c-6.6-13.51-13.75-26.71-21.42-39.56h0ZM951.76,190.62l-30.49,25.89c8.96,10.55,17.59,21.6,25.64,32.85l32.53-23.28c-8.74-12.21-17.97-24.04-27.68-35.47h0ZM888.09,127.15l-25.8,30.57c10.57,8.92,20.91,18.4,30.71,28.18l28.24-28.33c-3.19-3.18-6.43-6.33-9.7-9.43h0c-.34-.33-.68-.64-1.02-.97,0,0-.01-.01-.02-.02-.09-.08-.18-.17-.27-.25,0,0-.02-.01-.02-.02-.15-.14-.28-.27-.43-.4,0,0-.02-.02-.02-.02-.1-.09-.16-.15-.26-.24-.01-.01-.02-.02-.03-.03-.25-.23-.46-.43-.71-.66-.02-.01-.03-.03-.05-.04-.07-.07-.15-.14-.22-.21-.02-.02-.05-.04-.07-.06-.07-.07-.14-.13-.21-.2-.02-.02-.04-.04-.06-.06-.05-.05-.08-.08-.13-.12-.03-.03-.06-.06-.09-.08-.06-.06-.12-.11-.18-.17-.03-.03-.06-.05-.09-.08-.06-.06-.12-.12-.19-.17-.03-.03-.06-.05-.09-.08-.04-.03-.09-.08-.12-.11-.05-.05-.1-.09-.15-.14-.05-.05-.08-.07-.13-.12-.03-.03-.06-.06-.09-.09-.06-.06-.11-.1-.17-.16-.03-.03-.07-.06-.1-.09-.06-.06-.11-.1-.17-.16-.03-.03-.07-.06-.1-.09-.04-.03-.08-.07-.11-.11-.05-.05-.11-.1-.16-.15-.04-.03-.07-.07-.11-.1-.04-.04-.08-.07-.12-.11-.05-.05-.11-.1-.16-.14-.04-.03-.07-.07-.11-.1-.05-.05-.09-.08-.14-.13-.05-.04-.09-.08-.14-.13-.04-.03-.07-.06-.1-.1-.06-.05-.11-.1-.17-.15-.04-.03-.07-.06-.11-.1-.04-.04-.08-.08-.12-.11-.05-.05-.09-.08-.14-.13-.04-.04-.08-.08-.12-.11-.04-.03-.06-.06-.1-.09-.06-.05-.12-.11-.18-.16-.02-.02-.07-.06-.09-.08-.06-.05-.12-.11-.18-.17-.04-.03-.06-.05-.09-.09-.05-.04-.1-.09-.14-.13-.04-.03-.07-.06-.11-.1-.05-.05-.1-.1-.16-.14-.02-.02-.06-.05-.08-.07-.06-.06-.13-.12-.19-.17-.02-.02-.05-.05-.08-.07-.06-.06-.13-.12-.19-.18-.02-.02-.06-.05-.08-.07-.05-.05-.1-.09-.15-.14-.04-.03-.06-.05-.09-.09-.06-.05-.11-.1-.17-.16-.04-.03-.04-.04-.08-.07-.06-.06-.13-.12-.19-.17-.03-.02-.05-.05-.08-.07-.07-.06-.13-.12-.2-.18-.03-.02-.05-.04-.07-.06-.05-.05-.11-.1-.16-.15-.03-.02-.05-.04-.07-.06-.06-.06-.13-.12-.19-.17-.03-.02-.06-.05-.08-.07-.06-.06-.13-.12-.19-.17-.03-.02-.06-.05-.08-.07-.06-.05-.12-.11-.18-.16-.04-.03-.05-.04-.08-.08-.06-.05-.11-.1-.17-.15-.03-.02-.04-.03-.06-.06-.07-.06-.13-.12-.2-.18-.03-.02-.05-.05-.08-.07-.07-.06-.13-.12-.2-.18-.01-.01-.05-.05-.07-.06-.06-.06-.13-.11-.19-.17-.03-.02-.04-.04-.07-.06-.06-.06-.12-.11-.19-.17-.03-.02-.03-.03-.06-.05-.07-.06-.14-.13-.21-.19-.03-.02-.04-.04-.07-.06-.07-.06-.14-.12-.21-.19-.03-.02-.03-.03-.06-.05-.06-.06-.13-.11-.19-.17-.03-.02-.04-.03-.06-.06-.07-.06-.13-.12-.2-.17-.01-.01-.05-.04-.06-.05-.07-.06-.14-.13-.21-.19-.03-.02-.03-.03-.06-.05-.07-.06-.14-.13-.21-.19-.03-.02-.03-.03-.06-.05-.06-.05-.12-.11-.19-.16-.01-.01-.04-.04-.05-.05-.07-.06-.14-.12-.21-.18-.01-.01-.05-.05-.07-.06-.07-.06-.14-.12-.21-.18-.03-.02-.04-.03-.06-.06-.07-.06-.14-.12-.21-.19-.03-.02-.03-.02-.05-.05-.06-.06-.12-.11-.19-.16-.03-.02-.03-.03-.06-.05-.07-.06-.14-.12-.21-.19-.01-.01-.05-.04-.06-.06-.07-.06-.14-.12-.21-.19-.01-.01-.05-.04-.06-.05-.07-.06-.15-.13-.22-.19-.01-.01-.02-.02-.03-.03-.07-.06-.13-.12-.2-.18-.03-.02-.03-.03-.05-.05-.07-.06-.14-.13-.22-.19-.03-.02-.03-.03-.06-.05-.07-.06-.14-.12-.21-.19-.01-.01-.05-.04-.06-.05-.07-.06-.14-.12-.21-.19-.01-.01-.03-.02-.04-.03-.07-.06-.14-.12-.21-.18-.03-.02-.03-.03-.06-.05-.07-.06-.14-.12-.21-.19-.03-.02-.03-.03-.06-.05-.07-.06-.15-.13-.22-.19-.03-.02-.02-.02-.05-.04-.07-.06-.15-.13-.22-.19h-.02c-.08-.08-.16-.15-.23-.21-.01-.01-.03-.03-.05-.04-.07-.06-.15-.13-.22-.19-.03-.02-.03-.02-.05-.05-.07-.06-.15-.13-.22-.19-.03-.02-.02-.02-.05-.04-.07-.06-.14-.12-.21-.18-.01-.01-.02-.02-.04-.03-.07-.06-.15-.13-.22-.19-.01-.01-.05-.04-.06-.06-.07-.06-.14-.12-.22-.19-.01-.01-.04-.04-.05-.05-.07-.06-.15-.13-.22-.19-.01-.01-.03-.03-.05-.04-.07-.06-.14-.12-.2-.17-.01-.01-.03-.03-.04-.04-.07-.06-.15-.13-.22-.19-.03-.02-.04-.03-.06-.05-.07-.06-.14-.12-.22-.19-.01-.01-.04-.03-.05-.04-.08-.07-.15-.13-.23-.19-.01-.01-.02-.02-.04-.03-.07-.06-.14-.12-.21-.18-.03-.02-.03-.02-.05-.04-.07-.06-.14-.12-.21-.18-.03-.02-.04-.04-.07-.06-.07-.06-.14-.12-.21-.18-.01-.01-.05-.04-.06-.05-.07-.06-.14-.12-.21-.18-.01-.01-.04-.03-.05-.04-.07-.06-.13-.11-.2-.17-.03-.02-.03-.03-.06-.05-.07-.06-.14-.12-.21-.18-.03-.02-.05-.04-.07-.06-.07-.06-.14-.12-.21-.18-.03-.02-.04-.03-.06-.05-.06-.05-.13-.11-.19-.16-.03-.02-.04-.03-.07-.06-.07-.06-.13-.11-.2-.17-.01-.01-.05-.04-.06-.05-.07-.06-.14-.12-.21-.18-.01-.01-.02-.02-.04-.03h0ZM814.82,75.06l-20.39,34.42c11.89,7.05,23.65,14.69,34.93,22.71l23.18-32.6c-9.06-6.44-18.33-12.61-27.79-18.49h0c-.1-.06-.19-.12-.29-.18-.01,0,0,0-.02-.01-.19-.12-.39-.24-.58-.36h0c-.09-.06-.19-.12-.28-.18-.01,0-.02-.01-.03-.02-.09-.06-.18-.11-.27-.17-.01,0-.03-.02-.04-.03-.09-.06-.18-.11-.27-.17h0c-.09-.06-.18-.11-.27-.17-.01,0-.03-.02-.04-.03-.08-.05-.17-.1-.25-.16-.03-.02-.04-.02-.06-.04-.08-.05-.16-.1-.24-.15-.03-.02-.04-.02-.07-.04-.07-.04-.14-.09-.22-.13-.01,0-.05-.03-.06-.04-.07-.05-.15-.09-.22-.14-.03-.02-.05-.03-.08-.05-.08-.05-.15-.09-.23-.14-.03-.02-.06-.04-.09-.05-.07-.04-.14-.09-.22-.13-.03-.02-.07-.04-.1-.06-.05-.03-.11-.07-.16-.1-.04-.03-.09-.06-.14-.08-.06-.03-.11-.07-.17-.1-.04-.03-.08-.05-.12-.07-.07-.04-.13-.08-.2-.12-.04-.03-.08-.05-.13-.08-.04-.02-.07-.04-.11-.06-.07-.04-.16-.1-.23-.14-.02-.01-.05-.03-.07-.05-.09-.05-.19-.11-.27-.17-.02,0-.03-.02-.05-.03-.17-.11-.33-.2-.5-.3,0,0-.02-.01-.03-.02-1.26-.76-2.51-1.51-3.78-2.26h0ZM733.92,35.86l-14.37,37.33c12.9,4.96,25.75,10.54,38.2,16.57l17.44-36c-2.41-1.17-4.84-2.32-7.27-3.46h-.03c-.1-.06-.19-.1-.29-.15-.02,0-.03-.01-.04-.02-.09-.04-.19-.09-.28-.13h-.02c-.09-.05-.18-.09-.27-.13-.02,0-.05-.03-.07-.03-.08-.04-.17-.08-.26-.12-.03-.01-.05-.02-.08-.04-.08-.04-.15-.07-.23-.11-.03-.01-.07-.03-.11-.05-.06-.03-.12-.06-.18-.08-.03-.01-.07-.03-.11-.05-.07-.03-.15-.07-.22-.1-.03-.01-.1-.05-.13-.06-.06-.03-.13-.06-.19-.09-.05-.02-.1-.05-.15-.07-.04-.02-.08-.04-.13-.06-.06-.03-.17-.08-.23-.11-.03-.02-.07-.03-.1-.05-.17-.08-.34-.16-.51-.24-.02,0-.04-.02-.06-.03-.11-.05-.2-.09-.31-.14-.01,0-.03-.01-.04-.02-8.39-3.83-16.89-7.44-25.51-10.85,0,0,0,0,0,0-.11-.04-.24-.1-.35-.14-.02,0-.03-.01-.05-.02-.13-.05-.22-.09-.35-.14,0,0-.01,0-.02,0-.06-.03-.12-.05-.18-.07-.02,0-.04-.01-.05-.02-.1-.04-.2-.08-.3-.12-.03-.01-.06-.02-.09-.03-.08-.03-.18-.07-.26-.1-.03-.01-.07-.03-.1-.04-.05-.02-.11-.04-.15-.06-.07-.03-.14-.05-.21-.08-.05-.02-.09-.03-.14-.05-.05-.02-.1-.04-.15-.06-.06-.02-.11-.04-.18-.07-.06-.02-.12-.04-.17-.07-.05-.02-.07-.03-.11-.04-.08-.03-.16-.06-.24-.09-.03-.01-.08-.03-.11-.04-.08-.03-.17-.06-.25-.1-.03-.01-.04-.02-.07-.03-.08-.03-.15-.06-.23-.09-.03-.01-.04-.02-.07-.03-.09-.03-.18-.07-.27-.1-.03-.01-.04-.02-.08-.03-.09-.03-.18-.07-.27-.1h-.03ZM647.61,10.72l-7.93,39.21c13.56,2.74,27.16,6.09,40.43,9.96l11.19-38.4s-.03,0-.03,0c-.1-.03-.19-.06-.28-.08-.02,0-.04-.01-.06-.02-.1-.03-.2-.06-.29-.09-.02,0-.02,0-.03,0-.09-.03-.18-.05-.27-.08-.02,0-.04-.01-.06-.02-.09-.03-.19-.05-.28-.08-.02,0-.06-.02-.08-.02-.09-.03-.19-.05-.28-.08-.02,0-.02,0-.04-.01-.09-.03-.18-.05-.27-.08-.03,0-.03,0-.06-.02-.09-.03-.19-.05-.28-.08-.03,0-.04-.01-.08-.02-.09-.03-.18-.05-.28-.08-.03,0-.03,0-.07-.02-.08-.02-.16-.05-.24-.07-.03,0-.03,0-.07-.02-.09-.03-.18-.05-.28-.08-.03,0-.05-.01-.08-.02-.09-.03-.18-.05-.28-.08-.03,0-.04-.01-.07-.02-.08-.02-.15-.04-.23-.07-.03,0-.04-.01-.08-.02-.09-.03-.18-.05-.27-.08-.03,0-.05-.02-.09-.02-.09-.02-.18-.05-.26-.07-.03,0-.06-.02-.09-.03-.07-.02-.15-.04-.22-.06-.02,0-.06-.02-.08-.02-.09-.02-.17-.05-.26-.07-.03,0-.07-.02-.11-.03-.08-.02-.17-.05-.25-.07-.03,0-.07-.02-.11-.03-.07-.02-.13-.04-.2-.06-.05-.01-.08-.02-.13-.04-.07-.02-.14-.04-.21-.06-.03,0-.08-.02-.11-.03-.08-.02-.17-.05-.25-.07-.05-.01-.06-.02-.11-.03-.07-.02-.13-.04-.2-.06-.03,0-.11-.03-.14-.04-.07-.02-.13-.04-.2-.05-.05-.01-.06-.02-.11-.03-.08-.02-.16-.04-.24-.07-.05-.01-.07-.02-.12-.03-.06-.02-.13-.03-.19-.05-.05-.01-.11-.03-.16-.04-.06-.02-.12-.03-.18-.05-.05-.01-.07-.02-.12-.03-.08-.02-.16-.04-.24-.06-.03,0-.09-.03-.13-.03-.07-.02-.14-.04-.2-.06-.05-.01-.09-.03-.14-.04-.06-.02-.12-.03-.17-.05-.05-.01-.08-.02-.13-.03-.08-.02-.16-.04-.23-.06-.03,0-.09-.03-.13-.03-.07-.02-.13-.04-.2-.05-.05-.01-.11-.03-.16-.04-.05-.01-.11-.03-.16-.04-.03,0-.11-.03-.15-.04-.07-.02-.14-.04-.21-.06-.03,0-.11-.03-.14-.04-.06-.02-.13-.03-.19-.05-.07-.02-.1-.03-.17-.05-.05-.01-.1-.03-.15-.04-.07-.02-.12-.03-.18-.05-.06-.02-.12-.03-.18-.05-.05-.01-.09-.02-.14-.04-.06-.02-.13-.03-.19-.05-.07-.02-.11-.03-.17-.05-.05-.01-.1-.03-.15-.04-.07-.02-.13-.03-.19-.05-.05-.01-.11-.03-.16-.04-.05-.01-.09-.02-.14-.04-.08-.02-.15-.04-.23-.06-.05-.01-.09-.02-.14-.04-.05-.01-.1-.03-.14-.04-.07-.02-.15-.04-.22-.06-.05-.01-.09-.02-.14-.04-.05-.01-.1-.03-.15-.04-.07-.02-.15-.04-.22-.06-.05-.01-.1-.03-.16-.04-.04-.01-.09-.02-.13-.03-.07-.02-.16-.04-.22-.06-.05-.01-.09-.02-.14-.04-.05-.01-.1-.03-.15-.04-.07-.02-.14-.04-.22-.06-.05-.01-.1-.03-.15-.04-.04-.01-.09-.02-.13-.03-.07-.02-.17-.04-.24-.06-.04-.01-.08-.02-.12-.03-.05-.01-.1-.03-.15-.04-.07-.02-.14-.04-.21-.05-.05-.01-.11-.03-.16-.04-.05-.01-.09-.02-.14-.04-.08-.02-.15-.04-.23-.06-.04-.01-.08-.02-.12-.03-.08-.02-.15-.04-.23-.06-.05-.01-.09-.02-.14-.04-.07-.02-.09-.02-.16-.04-.04,0-.07-.02-.11-.03-.08-.02-.18-.05-.26-.07-.04,0-.07-.02-.11-.03-.08-.02-.16-.04-.25-.06-.04-.01-.08-.02-.12-.03-.07-.02-.1-.03-.17-.04-.03,0-.07-.02-.1-.03-.08-.02-.19-.05-.27-.07-.03,0-.06-.02-.09-.02-.1-.03-.2-.05-.3-.08-.02,0-.05-.01-.07-.02-.07-.02-.11-.03-.18-.05-.03,0-.05-.01-.08-.02-.1-.03-.19-.05-.29-.07-.03,0-.06-.02-.09-.02-.1-.03-.19-.05-.29-.07-.03,0-.05-.01-.08-.02-.07-.02-.11-.03-.18-.04-.02,0-.04-.01-.07-.02-.1-.03-.21-.05-.31-.08-.03,0-.06-.01-.08-.02-.1-.03-.2-.05-.3-.07-.03,0-.05-.01-.08-.02-.2-.05-.36-.09-.56-.14-.02,0-.04-.01-.07-.02-.1-.02-.22-.05-.32-.08-.02,0-.04-.01-.06-.02-.2-.05-.36-.09-.57-.14-.03,0-.05-.01-.08-.02-.1-.02-.21-.05-.31-.08-.02,0-.04-.01-.07-.02-.2-.05-.37-.09-.57-.14-.02,0-.03,0-.05-.01-.1-.02-.23-.06-.33-.08-.02,0-.04-.01-.06-.02-.12-.03-.26-.06-.37-.09,0,0,0,0,0,0-.07-.02-.12-.03-.19-.05-.02,0-.04,0-.06-.01-.1-.02-.22-.05-.32-.08-.03,0-.05-.01-.08-.02-.1-.02-.24-.06-.34-.08-.01,0-.02,0-.03,0-.07-.02-.12-.03-.19-.05-.01,0-.03,0-.04-.01-.1-.02-.23-.05-.33-.08-.02,0-.05-.01-.08-.02-.1-.02-.24-.06-.34-.08-.01,0-.03,0-.04,0-.07-.02-.12-.03-.19-.05,0,0-.02,0-.03,0-.14-.03-.22-.05-.36-.08-.02,0-.04,0-.06-.01-.1-.02-.23-.05-.33-.08-.02,0-.04,0-.06-.01-.2-.05-.37-.09-.57-.13-.02,0-.04,0-.06-.01-.1-.02-.23-.05-.34-.08-.02,0-.03,0-.05-.01-.19-.04-.38-.09-.57-.13-.03,0-.05-.01-.08-.02-.1-.02-.21-.05-.32-.07-.02,0-.04,0-.06-.01-.2-.05-.37-.08-.57-.13-.02,0-.04-.01-.07-.02-.1-.02-.22-.05-.32-.07-.02,0-.04,0-.06-.01-.2-.05-.38-.09-.58-.13-.02,0-.03,0-.04,0-.1-.02-.24-.05-.34-.08-.02,0-.04,0-.06-.01-.19-.04-.39-.09-.58-.13-.01,0-.02,0-.04,0-.1-.02-.25-.06-.35-.08-.02,0-.04,0-.06-.01-.2-.05-.38-.08-.58-.13-.01,0-.02,0-.03,0-.1-.02-.25-.06-.36-.08-.02,0-.04,0-.05-.01-.1-.02-.25-.05-.35-.08-.02,0-.03,0-.04,0-.07-.02-.12-.03-.19-.04,0,0-.02,0-.02,0-.12-.03-.24-.05-.36-.08-.02,0-.04,0-.06-.01-.1-.02-.24-.05-.34-.08-.01,0-.03,0-.04,0-.19-.04-.39-.08-.57-.13-.03,0-.05-.01-.08-.02-.1-.02-.22-.05-.32-.07-.02,0-.04,0-.06-.01-.21-.04-.37-.08-.58-.12-.02,0-.04,0-.06-.01-.1-.02-.22-.05-.32-.07-.02,0-.05-.01-.07-.02-.21-.04-.37-.08-.57-.12-.02,0-.04,0-.06-.01-.1-.02-.23-.05-.33-.07-.02,0-.04,0-.06-.01-.21-.04-.37-.08-.58-.12-.02,0-.04,0-.06-.01-.1-.02-.22-.05-.33-.07-.02,0-.04,0-.07-.01-.21-.04-.37-.08-.58-.12-.02,0-.04,0-.06-.01-.1-.02-.22-.05-.32-.07-.02,0-.05,0-.07-.01-.1-.02-.24-.05-.35-.07-.01,0-.03,0-.04,0-.07-.01-.13-.03-.19-.04-.01,0-.02,0-.04,0-.1-.02-.24-.05-.34-.07-.02,0-.05-.01-.07-.02-.1-.02-.22-.04-.32-.07-.02,0-.05,0-.07-.01-.07-.01-.11-.02-.18-.04-.03,0-.05-.01-.08-.02-.1-.02-.2-.04-.3-.06-.03,0-.06-.01-.09-.02-.1-.02-.19-.04-.3-.06-.03,0-.06-.01-.08-.02-.07-.01-.11-.02-.18-.04-.02,0-.03,0-.05-.01-.1-.02-.24-.05-.34-.07-.02,0-.04,0-.06-.01-.05-.01-.1-.02-.15-.03h0ZM558.32.31l-1.33,39.98c13.86.46,27.85,1.51,41.56,3.11l4.63-39.73s-.03,0-.05,0c-.03,0-.07,0-.1-.01-.02,0-.07,0-.08,0-.07,0-.14-.02-.21-.02-.04,0-.04,0-.08,0-.03,0-.06,0-.08,0-.04,0-.08,0-.12-.01-.03,0-.05,0-.08,0-.04,0-.09,0-.12-.01-.02,0-.05,0-.07,0-.04,0-.09-.01-.13-.01-.02,0-.05,0-.07,0-.14-.02-.26-.03-.4-.05,0,0-.02,0-.03,0-.07,0-.11-.01-.18-.02,0,0-.02,0-.02,0-.07,0-.12-.01-.19-.02,0,0,0,0,0,0-6.57-.74-13.18-1.36-19.82-1.87,0,0,0,0,0,0-.07,0-.13,0-.2-.02,0,0,0,0,0,0-.21-.02-.42-.03-.63-.05,0,0-.01,0-.02,0-.07,0-.11,0-.18-.01-.01,0-.03,0-.04,0-.07,0-.1,0-.17-.01-.01,0-.02,0-.04,0-.14-.01-.26-.02-.4-.03-.02,0-.03,0-.05,0-.05,0-.1,0-.16-.01-.02,0-.04,0-.06,0-.04,0-.1,0-.14,0-.02,0-.04,0-.07,0-.05,0-.08,0-.14,0-.02,0-.04,0-.07,0-.07,0-.12,0-.19-.01-.02,0-.03,0-.05,0-.04,0-.11,0-.14-.01-.03,0-.07,0-.1,0-.04,0-.06,0-.1,0-.03,0-.07,0-.1,0-.04,0-.06,0-.09,0-.03,0-.07,0-.1,0-.02,0-.07,0-.09,0-.08,0-.16-.01-.24-.02h-.04s-.08,0-.12-.01c-.02,0-.05,0-.07,0-.04,0-.08,0-.11,0-.04,0-.04,0-.08,0-.04,0-.09,0-.13,0-.02,0-.02,0-.04,0-.16-.01-.32-.02-.47-.03-.02,0-.02,0-.03,0-.05,0-.1,0-.15-.01h-.03c-.05,0-.11,0-.16-.01-.02,0,0,0-.02,0-5.97-.4-11.96-.7-17.98-.9h0Z"/>
</svg>